<?xml version="1.0" encoding="UTF-8" standalone="no"?>
<!DOCTYPE svg PUBLIC "-//W3C//DTD SVG 1.1//EN"
 "http://www.w3.org/Graphics/SVG/1.1/DTD/svg11.dtd">
<!-- Generated by graphviz version 2.43.0 (0)
 -->
<!-- Title: pastafarianism Pages: 1 -->
<svg width="2089pt" height="352pt"
 viewBox="0.00 0.00 2088.90 352.00" xmlns="http://www.w3.org/2000/svg" xmlns:xlink="http://www.w3.org/1999/xlink">
<g id="graph0" class="graph" transform="scale(1 1) rotate(0) translate(4 348)">
<title>pastafarianism</title>
<polygon fill="white" stroke="transparent" points="-4,4 -4,-348 2084.9,-348 2084.9,4 -4,4"/>
<!-- Phase1 -->
<g id="node1" class="node">
<title>Phase1</title>
<polygon fill="gold" stroke="black" points="1160.02,-344 1028.17,-344 994.25,-288 1126.1,-288 1160.02,-344"/>
<text text-anchor="middle" x="1077.14" y="-318.8" font-family="Times,serif" font-size="9.00">⚡ Phase1</text>
<text text-anchor="middle" x="1077.14" y="-308.8" font-family="Times,serif" font-size="9.00">SuccessOnAll</text>
</g>
<!-- Drone1_WithRecovery -->
<g id="node2" class="node">
<title>Drone1_WithRecovery</title>
<polygon fill="cyan" stroke="black" points="856.61,-226.54 856.61,-241.46 808.3,-252 739.97,-252 691.66,-241.46 691.66,-226.54 739.97,-216 808.3,-216 856.61,-226.54"/>
<text text-anchor="middle" x="774.14" y="-231.8" font-family="Times,serif" font-size="9.00">Ⓜ Drone1_WithRecovery</text>
</g>
<!-- Phase1&#45;&gt;Drone1_WithRecovery -->
<g id="edge1" class="edge">
<title>Phase1&#45;&gt;Drone1_WithRecovery</title>
<path fill="none" stroke="black" d="M997.92,-294.09C946.85,-280.6 881.46,-263.34 834.57,-250.96"/>
<polygon fill="black" stroke="black" points="835.42,-247.56 824.86,-248.39 833.63,-254.33 835.42,-247.56"/>
</g>
<!-- Drone2_WithRecovery -->
<g id="node18" class="node">
<title>Drone2_WithRecovery</title>
<polygon fill="cyan" stroke="black" points="1402.61,-226.54 1402.61,-241.46 1354.3,-252 1285.97,-252 1237.66,-241.46 1237.66,-226.54 1285.97,-216 1354.3,-216 1402.61,-226.54"/>
<text text-anchor="middle" x="1320.14" y="-231.8" font-family="Times,serif" font-size="9.00">Ⓜ Drone2_WithRecovery</text>
</g>
<!-- Phase1&#45;&gt;Drone2_WithRecovery -->
<g id="edge17" class="edge">
<title>Phase1&#45;&gt;Drone2_WithRecovery</title>
<path fill="none" stroke="black" d="M1131.67,-297.05C1171.61,-283.9 1225.6,-266.12 1265.56,-252.97"/>
<polygon fill="black" stroke="black" points="1266.74,-256.27 1275.14,-249.81 1264.55,-249.62 1266.74,-256.27"/>
</g>
<!-- Drone1_Main -->
<g id="node3" class="node">
<title>Drone1_Main</title>
<polygon fill="orange" stroke="black" points="589.64,-180 498.64,-180 498.64,-144 589.64,-144 589.64,-180"/>
<text text-anchor="middle" x="544.14" y="-159.8" font-family="Times,serif" font-size="9.00">Ⓜ Drone1_Main</text>
</g>
<!-- Drone1_WithRecovery&#45;&gt;Drone1_Main -->
<g id="edge2" class="edge">
<title>Drone1_WithRecovery&#45;&gt;Drone1_Main</title>
<path fill="none" stroke="black" d="M727.31,-218.75C690.26,-207.47 638.43,-191.7 599.36,-179.81"/>
<polygon fill="black" stroke="black" points="600.3,-176.44 589.71,-176.87 598.26,-183.13 600.3,-176.44"/>
</g>
<!-- Recovery_1 -->
<g id="node15" class="node">
<title>Recovery_1</title>
<polygon fill="orange" stroke="black" points="815.14,-180 733.14,-180 733.14,-144 815.14,-144 815.14,-180"/>
<text text-anchor="middle" x="774.14" y="-159.8" font-family="Times,serif" font-size="9.00">Ⓜ Recovery_1</text>
</g>
<!-- Drone1_WithRecovery&#45;&gt;Recovery_1 -->
<g id="edge14" class="edge">
<title>Drone1_WithRecovery&#45;&gt;Recovery_1</title>
<path fill="none" stroke="black" d="M774.14,-215.7C774.14,-207.98 774.14,-198.71 774.14,-190.11"/>
<polygon fill="black" stroke="black" points="777.64,-190.1 774.14,-180.1 770.64,-190.1 777.64,-190.1"/>
</g>
<!-- TakeOff_1 -->
<g id="node4" class="node">
<title>TakeOff_1</title>
<polygon fill="orange" stroke="black" points="201.14,-108 127.14,-108 127.14,-72 201.14,-72 201.14,-108"/>
<text text-anchor="middle" x="164.14" y="-87.8" font-family="Times,serif" font-size="9.00">Ⓜ TakeOff_1</text>
</g>
<!-- Drone1_Main&#45;&gt;TakeOff_1 -->
<g id="edge3" class="edge">
<title>Drone1_Main&#45;&gt;TakeOff_1</title>
<path fill="none" stroke="black" d="M498.3,-152.56C425.62,-139.17 284.67,-113.2 211.22,-99.67"/>
<polygon fill="black" stroke="black" points="211.78,-96.22 201.32,-97.85 210.52,-103.1 211.78,-96.22"/>
</g>
<!-- AcquireTarget_1 -->
<g id="node8" class="node">
<title>AcquireTarget_1</title>
<polygon fill="orange" stroke="black" points="473.14,-108 367.14,-108 367.14,-72 473.14,-72 473.14,-108"/>
<text text-anchor="middle" x="420.14" y="-87.8" font-family="Times,serif" font-size="9.00">Ⓜ AcquireTarget_1</text>
</g>
<!-- Drone1_Main&#45;&gt;AcquireTarget_1 -->
<g id="edge7" class="edge">
<title>Drone1_Main&#45;&gt;AcquireTarget_1</title>
<path fill="none" stroke="black" d="M513.8,-143.88C497.44,-134.64 477.05,-123.13 459.48,-113.21"/>
<polygon fill="black" stroke="black" points="461.01,-110.06 450.59,-108.19 457.57,-116.15 461.01,-110.06"/>
</g>
<!-- CleanSurface_1 -->
<g id="node11" class="node">
<title>CleanSurface_1</title>
<polygon fill="orange" stroke="black" points="659.64,-108 558.64,-108 558.64,-72 659.64,-72 659.64,-108"/>
<text text-anchor="middle" x="609.14" y="-87.8" font-family="Times,serif" font-size="9.00">Ⓜ CleanSurface_1</text>
</g>
<!-- Drone1_Main&#45;&gt;CleanSurface_1 -->
<g id="edge10" class="edge">
<title>Drone1_Main&#45;&gt;CleanSurface_1</title>
<path fill="none" stroke="black" d="M560.2,-143.7C568.07,-135.22 577.69,-124.86 586.31,-115.58"/>
<polygon fill="black" stroke="black" points="589.01,-117.81 593.25,-108.1 583.88,-113.05 589.01,-117.81"/>
</g>
<!-- Arm_1 -->
<g id="node5" class="node">
<title>Arm_1</title>
<ellipse fill="gray" stroke="black" cx="27.14" cy="-18" rx="27.27" ry="18"/>
<text text-anchor="middle" x="27.14" y="-15.8" font-family="Times,serif" font-size="9.00">Arm_1</text>
</g>
<!-- TakeOff_1&#45;&gt;Arm_1 -->
<g id="edge4" class="edge">
<title>TakeOff_1&#45;&gt;Arm_1</title>
<path fill="none" stroke="black" d="M130.62,-71.88C108.13,-60.38 78.75,-45.37 57.04,-34.28"/>
<polygon fill="black" stroke="black" points="58.46,-31.07 47.96,-29.64 55.27,-37.31 58.46,-31.07"/>
</g>
<!-- Offboard_1 -->
<g id="node6" class="node">
<title>Offboard_1</title>
<ellipse fill="gray" stroke="black" cx="111.14" cy="-18" rx="39.02" ry="18"/>
<text text-anchor="middle" x="111.14" y="-15.8" font-family="Times,serif" font-size="9.00">Offboard_1</text>
</g>
<!-- TakeOff_1&#45;&gt;Offboard_1 -->
<g id="edge5" class="edge">
<title>TakeOff_1&#45;&gt;Offboard_1</title>
<path fill="none" stroke="black" d="M151.03,-71.7C144.56,-63.14 136.63,-52.67 129.55,-43.33"/>
<polygon fill="black" stroke="black" points="132.19,-41 123.36,-35.14 126.61,-45.23 132.19,-41"/>
</g>
<!-- TakeOffCmd_1 -->
<g id="node7" class="node">
<title>TakeOffCmd_1</title>
<ellipse fill="gray" stroke="black" cx="216.14" cy="-18" rx="47.84" ry="18"/>
<text text-anchor="middle" x="216.14" y="-15.8" font-family="Times,serif" font-size="9.00">TakeOffCmd_1</text>
</g>
<!-- TakeOff_1&#45;&gt;TakeOffCmd_1 -->
<g id="edge6" class="edge">
<title>TakeOff_1&#45;&gt;TakeOffCmd_1</title>
<path fill="none" stroke="black" d="M176.99,-71.7C183.25,-63.27 190.9,-52.97 197.76,-43.73"/>
<polygon fill="black" stroke="black" points="200.63,-45.74 203.79,-35.62 195.01,-41.56 200.63,-45.74"/>
</g>
<!-- GoTo -->
<g id="node9" class="node">
<title>GoTo</title>
<ellipse fill="gray" stroke="black" cx="309.14" cy="-18" rx="27" ry="18"/>
<text text-anchor="middle" x="309.14" y="-15.8" font-family="Times,serif" font-size="9.00">GoTo</text>
</g>
<!-- AcquireTarget_1&#45;&gt;GoTo -->
<g id="edge8" class="edge">
<title>AcquireTarget_1&#45;&gt;GoTo</title>
<path fill="none" stroke="black" d="M392.98,-71.88C375.82,-61.05 353.72,-47.11 336.51,-36.26"/>
<polygon fill="black" stroke="black" points="338.34,-33.28 328.01,-30.9 334.6,-39.2 338.34,-33.28"/>
</g>
<!-- FindAttachmentPoint -->
<g id="node10" class="node">
<title>FindAttachmentPoint</title>
<ellipse fill="gray" stroke="black" cx="420.14" cy="-18" rx="66.29" ry="18"/>
<text text-anchor="middle" x="420.14" y="-15.8" font-family="Times,serif" font-size="9.00">FindAttachmentPoint</text>
</g>
<!-- AcquireTarget_1&#45;&gt;FindAttachmentPoint -->
<g id="edge9" class="edge">
<title>AcquireTarget_1&#45;&gt;FindAttachmentPoint</title>
<path fill="none" stroke="black" d="M420.14,-71.7C420.14,-63.98 420.14,-54.71 420.14,-46.11"/>
<polygon fill="black" stroke="black" points="423.64,-46.1 420.14,-36.1 416.64,-46.1 423.64,-46.1"/>
</g>
<!-- Clean Surface -->
<g id="node12" class="node">
<title>Clean Surface</title>
<ellipse fill="gray" stroke="black" cx="551.14" cy="-18" rx="46.53" ry="18"/>
<text text-anchor="middle" x="551.14" y="-15.8" font-family="Times,serif" font-size="9.00">Clean Surface</text>
</g>
<!-- CleanSurface_1&#45;&gt;Clean Surface -->
<g id="edge11" class="edge">
<title>CleanSurface_1&#45;&gt;Clean Surface</title>
<path fill="none" stroke="black" d="M594.8,-71.7C587.74,-63.18 579.11,-52.76 571.39,-43.45"/>
<polygon fill="black" stroke="black" points="573.98,-41.09 564.91,-35.62 568.59,-45.56 573.98,-41.09"/>
</g>
<!-- Spray Adhesive -->
<g id="node13" class="node">
<title>Spray Adhesive</title>
<ellipse fill="gray" stroke="black" cx="667.14" cy="-18" rx="51.27" ry="18"/>
<text text-anchor="middle" x="667.14" y="-15.8" font-family="Times,serif" font-size="9.00">Spray Adhesive</text>
</g>
<!-- CleanSurface_1&#45;&gt;Spray Adhesive -->
<g id="edge12" class="edge">
<title>CleanSurface_1&#45;&gt;Spray Adhesive</title>
<path fill="none" stroke="black" d="M623.47,-71.7C630.53,-63.18 639.16,-52.76 646.88,-43.45"/>
<polygon fill="black" stroke="black" points="649.68,-45.56 653.36,-35.62 644.29,-41.09 649.68,-45.56"/>
</g>
<!-- Send Sensor Attachment Location -->
<g id="node14" class="node">
<title>Send Sensor Attachment Location</title>
<ellipse fill="gray" stroke="black" cx="836.14" cy="-18" rx="99.76" ry="18"/>
<text text-anchor="middle" x="836.14" y="-15.8" font-family="Times,serif" font-size="9.00">Send Sensor Attachment Location</text>
</g>
<!-- CleanSurface_1&#45;&gt;Send Sensor Attachment Location -->
<g id="edge13" class="edge">
<title>CleanSurface_1&#45;&gt;Send Sensor Attachment Location</title>
<path fill="none" stroke="black" d="M659.8,-73.38C694.79,-62.59 741.43,-48.21 777.95,-36.94"/>
<polygon fill="black" stroke="black" points="779.44,-40.15 787.96,-33.86 777.37,-33.46 779.44,-40.15"/>
</g>
<!-- Land -->
<g id="node16" class="node">
<title>Land</title>
<ellipse fill="gray" stroke="black" cx="740.14" cy="-90" rx="27" ry="18"/>
<text text-anchor="middle" x="740.14" y="-87.8" font-family="Times,serif" font-size="9.00">Land</text>
</g>
<!-- Recovery_1&#45;&gt;Land -->
<g id="edge15" class="edge">
<title>Recovery_1&#45;&gt;Land</title>
<path fill="none" stroke="black" d="M765.73,-143.7C761.8,-135.61 757.04,-125.81 752.7,-116.87"/>
<polygon fill="black" stroke="black" points="755.73,-115.09 748.21,-107.62 749.43,-118.15 755.73,-115.09"/>
</g>
<!-- Disarm -->
<g id="node17" class="node">
<title>Disarm</title>
<ellipse fill="gray" stroke="black" cx="814.14" cy="-90" rx="28.74" ry="18"/>
<text text-anchor="middle" x="814.14" y="-87.8" font-family="Times,serif" font-size="9.00">Disarm</text>
</g>
<!-- Recovery_1&#45;&gt;Disarm -->
<g id="edge16" class="edge">
<title>Recovery_1&#45;&gt;Disarm</title>
<path fill="none" stroke="black" d="M784.02,-143.7C788.81,-135.32 794.65,-125.1 799.91,-115.9"/>
<polygon fill="black" stroke="black" points="802.99,-117.56 804.91,-107.14 796.91,-114.09 802.99,-117.56"/>
</g>
<!-- Drone2_Main -->
<g id="node19" class="node">
<title>Drone2_Main</title>
<polygon fill="orange" stroke="black" points="1365.64,-180 1274.64,-180 1274.64,-144 1365.64,-144 1365.64,-180"/>
<text text-anchor="middle" x="1320.14" y="-159.8" font-family="Times,serif" font-size="9.00">Ⓜ Drone2_Main</text>
</g>
<!-- Drone2_WithRecovery&#45;&gt;Drone2_Main -->
<g id="edge18" class="edge">
<title>Drone2_WithRecovery&#45;&gt;Drone2_Main</title>
<path fill="none" stroke="black" d="M1320.14,-215.7C1320.14,-207.98 1320.14,-198.71 1320.14,-190.11"/>
<polygon fill="black" stroke="black" points="1323.64,-190.1 1320.14,-180.1 1316.64,-190.1 1323.64,-190.1"/>
</g>
<!-- Recovery_2 -->
<g id="node33" class="node">
<title>Recovery_2</title>
<polygon fill="orange" stroke="black" points="1739.14,-180 1657.14,-180 1657.14,-144 1739.14,-144 1739.14,-180"/>
<text text-anchor="middle" x="1698.14" y="-159.8" font-family="Times,serif" font-size="9.00">Ⓜ Recovery_2</text>
</g>
<!-- Drone2_WithRecovery&#45;&gt;Recovery_2 -->
<g id="edge32" class="edge">
<title>Drone2_WithRecovery&#45;&gt;Recovery_2</title>
<path fill="none" stroke="black" d="M1380.87,-221.75C1454.61,-208.1 1577.69,-185.31 1646.87,-172.49"/>
<polygon fill="black" stroke="black" points="1647.89,-175.86 1657.09,-170.6 1646.62,-168.98 1647.89,-175.86"/>
</g>
<!-- TakeOff_2 -->
<g id="node20" class="node">
<title>TakeOff_2</title>
<polygon fill="orange" stroke="black" points="1145.14,-108 1071.14,-108 1071.14,-72 1145.14,-72 1145.14,-108"/>
<text text-anchor="middle" x="1108.14" y="-87.8" font-family="Times,serif" font-size="9.00">Ⓜ TakeOff_2</text>
</g>
<!-- Drone2_Main&#45;&gt;TakeOff_2 -->
<g id="edge19" class="edge">
<title>Drone2_Main&#45;&gt;TakeOff_2</title>
<path fill="none" stroke="black" d="M1274.4,-145.9C1239.13,-134.25 1190.53,-118.2 1154.98,-106.47"/>
<polygon fill="black" stroke="black" points="1155.92,-103.09 1145.32,-103.28 1153.72,-109.74 1155.92,-103.09"/>
</g>
<!-- ApproachTarget_2 -->
<g id="node24" class="node">
<title>ApproachTarget_2</title>
<polygon fill="orange" stroke="black" points="1377.14,-108 1263.14,-108 1263.14,-72 1377.14,-72 1377.14,-108"/>
<text text-anchor="middle" x="1320.14" y="-87.8" font-family="Times,serif" font-size="9.00">Ⓜ ApproachTarget_2</text>
</g>
<!-- Drone2_Main&#45;&gt;ApproachTarget_2 -->
<g id="edge23" class="edge">
<title>Drone2_Main&#45;&gt;ApproachTarget_2</title>
<path fill="none" stroke="black" d="M1320.14,-143.7C1320.14,-135.98 1320.14,-126.71 1320.14,-118.11"/>
<polygon fill="black" stroke="black" points="1323.64,-118.1 1320.14,-108.1 1316.64,-118.1 1323.64,-118.1"/>
</g>
<!-- AttachSensor_2 -->
<g id="node27" class="node">
<title>AttachSensor_2</title>
<polygon fill="orange" stroke="black" points="1652.64,-108 1551.64,-108 1551.64,-72 1652.64,-72 1652.64,-108"/>
<text text-anchor="middle" x="1602.14" y="-87.8" font-family="Times,serif" font-size="9.00">Ⓜ AttachSensor_2</text>
</g>
<!-- Drone2_Main&#45;&gt;AttachSensor_2 -->
<g id="edge26" class="edge">
<title>Drone2_Main&#45;&gt;AttachSensor_2</title>
<path fill="none" stroke="black" d="M1365.76,-149.68C1413.5,-137.82 1488.7,-119.16 1541.43,-106.07"/>
<polygon fill="black" stroke="black" points="1542.47,-109.42 1551.33,-103.61 1540.79,-102.62 1542.47,-109.42"/>
</g>
<!-- Arm_2 -->
<g id="node21" class="node">
<title>Arm_2</title>
<ellipse fill="gray" stroke="black" cx="981.14" cy="-18" rx="27.27" ry="18"/>
<text text-anchor="middle" x="981.14" y="-15.8" font-family="Times,serif" font-size="9.00">Arm_2</text>
</g>
<!-- TakeOff_2&#45;&gt;Arm_2 -->
<g id="edge20" class="edge">
<title>TakeOff_2&#45;&gt;Arm_2</title>
<path fill="none" stroke="black" d="M1077.07,-71.88C1056.78,-60.69 1030.46,-46.19 1010.52,-35.2"/>
<polygon fill="black" stroke="black" points="1012.02,-32.03 1001.58,-30.27 1008.64,-38.16 1012.02,-32.03"/>
</g>
<!-- Offboard_2 -->
<g id="node22" class="node">
<title>Offboard_2</title>
<ellipse fill="gray" stroke="black" cx="1065.14" cy="-18" rx="39.02" ry="18"/>
<text text-anchor="middle" x="1065.14" y="-15.8" font-family="Times,serif" font-size="9.00">Offboard_2</text>
</g>
<!-- TakeOff_2&#45;&gt;Offboard_2 -->
<g id="edge21" class="edge">
<title>TakeOff_2&#45;&gt;Offboard_2</title>
<path fill="none" stroke="black" d="M1097.51,-71.7C1092.43,-63.44 1086.26,-53.39 1080.68,-44.3"/>
<polygon fill="black" stroke="black" points="1083.56,-42.31 1075.35,-35.62 1077.6,-45.98 1083.56,-42.31"/>
</g>
<!-- TakeOffCmd_2 -->
<g id="node23" class="node">
<title>TakeOffCmd_2</title>
<ellipse fill="gray" stroke="black" cx="1170.14" cy="-18" rx="47.84" ry="18"/>
<text text-anchor="middle" x="1170.14" y="-15.8" font-family="Times,serif" font-size="9.00">TakeOffCmd_2</text>
</g>
<!-- TakeOff_2&#45;&gt;TakeOffCmd_2 -->
<g id="edge22" class="edge">
<title>TakeOff_2&#45;&gt;TakeOffCmd_2</title>
<path fill="none" stroke="black" d="M1123.46,-71.7C1131.08,-63.09 1140.42,-52.55 1148.73,-43.17"/>
<polygon fill="black" stroke="black" points="1151.4,-45.43 1155.41,-35.62 1146.16,-40.79 1151.4,-45.43"/>
</g>
<!-- GoTo* -->
<g id="node25" class="node">
<title>GoTo*</title>
<ellipse fill="gray" stroke="black" cx="1263.14" cy="-18" rx="27" ry="18"/>
<text text-anchor="middle" x="1263.14" y="-15.8" font-family="Times,serif" font-size="9.00">GoTo*</text>
</g>
<!-- ApproachTarget_2&#45;&gt;GoTo* -->
<g id="edge24" class="edge">
<title>ApproachTarget_2&#45;&gt;GoTo*</title>
<path fill="none" stroke="black" d="M1306.05,-71.7C1298.8,-62.8 1289.88,-51.84 1282.05,-42.22"/>
<polygon fill="black" stroke="black" points="1284.54,-39.75 1275.51,-34.2 1279.11,-44.17 1284.54,-39.75"/>
</g>
<!-- FindAttachmentPoint* -->
<g id="node26" class="node">
<title>FindAttachmentPoint*</title>
<ellipse fill="gray" stroke="black" cx="1377.14" cy="-18" rx="68.91" ry="18"/>
<text text-anchor="middle" x="1377.14" y="-15.8" font-family="Times,serif" font-size="9.00">FindAttachmentPoint*</text>
</g>
<!-- ApproachTarget_2&#45;&gt;FindAttachmentPoint* -->
<g id="edge25" class="edge">
<title>ApproachTarget_2&#45;&gt;FindAttachmentPoint*</title>
<path fill="none" stroke="black" d="M1334.23,-71.7C1341.06,-63.3 1349.39,-53.07 1356.89,-43.86"/>
<polygon fill="black" stroke="black" points="1359.61,-46.07 1363.21,-36.1 1354.18,-41.65 1359.61,-46.07"/>
</g>
<!-- GoTo** -->
<g id="node28" class="node">
<title>GoTo**</title>
<ellipse fill="gray" stroke="black" cx="1492.14" cy="-18" rx="28.08" ry="18"/>
<text text-anchor="middle" x="1492.14" y="-15.8" font-family="Times,serif" font-size="9.00">GoTo**</text>
</g>
<!-- AttachSensor_2&#45;&gt;GoTo** -->
<g id="edge27" class="edge">
<title>AttachSensor_2&#45;&gt;GoTo**</title>
<path fill="none" stroke="black" d="M1575.23,-71.88C1558.59,-61.29 1537.27,-47.72 1520.39,-36.98"/>
<polygon fill="black" stroke="black" points="1521.84,-33.75 1511.52,-31.34 1518.08,-39.66 1521.84,-33.75"/>
</g>
<!-- Expose Manipulator -->
<g id="node29" class="node">
<title>Expose Manipulator</title>
<ellipse fill="gray" stroke="black" cx="1602.14" cy="-18" rx="63.52" ry="18"/>
<text text-anchor="middle" x="1602.14" y="-15.8" font-family="Times,serif" font-size="9.00">Expose Manipulator</text>
</g>
<!-- AttachSensor_2&#45;&gt;Expose Manipulator -->
<g id="edge28" class="edge">
<title>AttachSensor_2&#45;&gt;Expose Manipulator</title>
<path fill="none" stroke="black" d="M1602.14,-71.7C1602.14,-63.98 1602.14,-54.71 1602.14,-46.11"/>
<polygon fill="black" stroke="black" points="1605.64,-46.1 1602.14,-36.1 1598.64,-46.1 1605.64,-46.1"/>
</g>
<!-- Align Manipulator -->
<g id="node30" class="node">
<title>Align Manipulator</title>
<ellipse fill="gray" stroke="black" cx="1742.14" cy="-18" rx="58.13" ry="18"/>
<text text-anchor="middle" x="1742.14" y="-15.8" font-family="Times,serif" font-size="9.00">Align Manipulator</text>
</g>
<!-- AttachSensor_2&#45;&gt;Align Manipulator -->
<g id="edge29" class="edge">
<title>AttachSensor_2&#45;&gt;Align Manipulator</title>
<path fill="none" stroke="black" d="M1636.38,-71.88C1656.69,-61.72 1682.49,-48.82 1703.52,-38.31"/>
<polygon fill="black" stroke="black" points="1705.13,-41.42 1712.51,-33.81 1702,-35.15 1705.13,-41.42"/>
</g>
<!-- Apply Constant Pressure -->
<g id="node31" class="node">
<title>Apply Constant Pressure</title>
<ellipse fill="gray" stroke="black" cx="1894.14" cy="-18" rx="75.77" ry="18"/>
<text text-anchor="middle" x="1894.14" y="-15.8" font-family="Times,serif" font-size="9.00">Apply Constant Pressure</text>
</g>
<!-- AttachSensor_2&#45;&gt;Apply Constant Pressure -->
<g id="edge30" class="edge">
<title>AttachSensor_2&#45;&gt;Apply Constant Pressure</title>
<path fill="none" stroke="black" d="M1652.82,-74.44C1655.97,-73.6 1659.09,-72.78 1662.14,-72 1718.45,-57.6 1782.93,-43.02 1829.59,-32.81"/>
<polygon fill="black" stroke="black" points="1830.54,-36.18 1839.57,-30.63 1829.05,-29.35 1830.54,-36.18"/>
</g>
<!-- Attach Sensor -->
<g id="node32" class="node">
<title>Attach Sensor</title>
<ellipse fill="gray" stroke="black" cx="2034.14" cy="-18" rx="46.53" ry="18"/>
<text text-anchor="middle" x="2034.14" y="-15.8" font-family="Times,serif" font-size="9.00">Attach Sensor</text>
</g>
<!-- AttachSensor_2&#45;&gt;Attach Sensor -->
<g id="edge31" class="edge">
<title>AttachSensor_2&#45;&gt;Attach Sensor</title>
<path fill="none" stroke="black" d="M1652.73,-74.04C1655.9,-73.29 1659.05,-72.61 1662.14,-72 1801.25,-44.58 1840.35,-65.06 1979.14,-36 1982.83,-35.23 1986.62,-34.31 1990.41,-33.32"/>
<polygon fill="black" stroke="black" points="1991.68,-36.6 2000.36,-30.52 1989.79,-29.86 1991.68,-36.6"/>
</g>
<!-- Land* -->
<g id="node34" class="node">
<title>Land*</title>
<ellipse fill="gray" stroke="black" cx="1698.14" cy="-90" rx="27" ry="18"/>
<text text-anchor="middle" x="1698.14" y="-87.8" font-family="Times,serif" font-size="9.00">Land*</text>
</g>
<!-- Recovery_2&#45;&gt;Land* -->
<g id="edge33" class="edge">
<title>Recovery_2&#45;&gt;Land*</title>
<path fill="none" stroke="black" d="M1698.14,-143.7C1698.14,-135.98 1698.14,-126.71 1698.14,-118.11"/>
<polygon fill="black" stroke="black" points="1701.64,-118.1 1698.14,-108.1 1694.64,-118.1 1701.64,-118.1"/>
</g>
<!-- Disarm* -->
<g id="node35" class="node">
<title>Disarm*</title>
<ellipse fill="gray" stroke="black" cx="1774.14" cy="-90" rx="31.35" ry="18"/>
<text text-anchor="middle" x="1774.14" y="-87.8" font-family="Times,serif" font-size="9.00">Disarm*</text>
</g>
<!-- Recovery_2&#45;&gt;Disarm* -->
<g id="edge34" class="edge">
<title>Recovery_2&#45;&gt;Disarm*</title>
<path fill="none" stroke="black" d="M1716.92,-143.7C1727.11,-134.31 1739.8,-122.63 1750.63,-112.65"/>
<polygon fill="black" stroke="black" points="1753.15,-115.09 1758.13,-105.74 1748.41,-109.94 1753.15,-115.09"/>
</g>
</g>
</svg>
