<?xml version="1.0" encoding="UTF-8" standalone="no"?>
<!DOCTYPE svg PUBLIC "-//W3C//DTD SVG 1.1//EN"
 "http://www.w3.org/Graphics/SVG/1.1/DTD/svg11.dtd">
<!-- Generated by graphviz version 2.43.0 (0)
 -->
<!-- Title: pastafarianism Pages: 1 -->
<svg width="2397pt" height="352pt"
 viewBox="0.00 0.00 2397.20 352.00" xmlns="http://www.w3.org/2000/svg" xmlns:xlink="http://www.w3.org/1999/xlink">
<g id="graph0" class="graph" transform="scale(1 1) rotate(0) translate(4 348)">
<title>pastafarianism</title>
<polygon fill="white" stroke="transparent" points="-4,4 -4,-348 2393.2,-348 2393.2,4 -4,4"/>
<!-- Phase1 -->
<g id="node1" class="node">
<title>Phase1</title>
<polygon fill="gold" stroke="black" points="1387.02,-344 1255.17,-344 1221.25,-288 1353.1,-288 1387.02,-344"/>
<text text-anchor="middle" x="1304.14" y="-318.8" font-family="Times,serif" font-size="9.00">⚡ Phase1</text>
<text text-anchor="middle" x="1304.14" y="-308.8" font-family="Times,serif" font-size="9.00">SuccessOnAll</text>
</g>
<!-- Drone1_WithRecovery -->
<g id="node2" class="node">
<title>Drone1_WithRecovery</title>
<polygon fill="cyan" stroke="black" points="1202.61,-226.54 1202.61,-241.46 1154.3,-252 1085.97,-252 1037.66,-241.46 1037.66,-226.54 1085.97,-216 1154.3,-216 1202.61,-226.54"/>
<text text-anchor="middle" x="1120.14" y="-231.8" font-family="Times,serif" font-size="9.00">Ⓜ Drone1_WithRecovery</text>
</g>
<!-- Phase1&#45;&gt;Drone1_WithRecovery -->
<g id="edge1" class="edge">
<title>Phase1&#45;&gt;Drone1_WithRecovery</title>
<path fill="none" stroke="black" d="M1241.84,-287.92C1217.39,-277.29 1189.81,-265.29 1167.09,-255.42"/>
<polygon fill="black" stroke="black" points="1168.24,-252.1 1157.68,-251.32 1165.45,-258.52 1168.24,-252.1"/>
</g>
<!-- Drone2_WithRecovery -->
<g id="node21" class="node">
<title>Drone2_WithRecovery</title>
<polygon fill="cyan" stroke="black" points="1719.61,-226.54 1719.61,-241.46 1671.3,-252 1602.97,-252 1554.66,-241.46 1554.66,-226.54 1602.97,-216 1671.3,-216 1719.61,-226.54"/>
<text text-anchor="middle" x="1637.14" y="-231.8" font-family="Times,serif" font-size="9.00">Ⓜ Drone2_WithRecovery</text>
</g>
<!-- Phase1&#45;&gt;Drone2_WithRecovery -->
<g id="edge20" class="edge">
<title>Phase1&#45;&gt;Drone2_WithRecovery</title>
<path fill="none" stroke="black" d="M1361.38,-301.25C1420.48,-287.05 1512.46,-264.95 1573.73,-250.23"/>
<polygon fill="black" stroke="black" points="1574.76,-253.59 1583.66,-247.85 1573.12,-246.78 1574.76,-253.59"/>
</g>
<!-- Drone1_Main -->
<g id="node3" class="node">
<title>Drone1_Main</title>
<polygon fill="orange" stroke="black" points="712.64,-180 621.64,-180 621.64,-144 712.64,-144 712.64,-180"/>
<text text-anchor="middle" x="667.14" y="-159.8" font-family="Times,serif" font-size="9.00">Ⓜ Drone1_Main</text>
</g>
<!-- Drone1_WithRecovery&#45;&gt;Drone1_Main -->
<g id="edge2" class="edge">
<title>Drone1_WithRecovery&#45;&gt;Drone1_Main</title>
<path fill="none" stroke="black" d="M1054.27,-222.82C964.87,-209.01 806.69,-184.57 722.88,-171.61"/>
<polygon fill="black" stroke="black" points="723.2,-168.12 712.79,-170.05 722.13,-175.04 723.2,-168.12"/>
</g>
<!-- Recovery_1 -->
<g id="node18" class="node">
<title>Recovery_1</title>
<polygon fill="orange" stroke="black" points="1161.14,-180 1079.14,-180 1079.14,-144 1161.14,-144 1161.14,-180"/>
<text text-anchor="middle" x="1120.14" y="-159.8" font-family="Times,serif" font-size="9.00">Ⓜ Recovery_1</text>
</g>
<!-- Drone1_WithRecovery&#45;&gt;Recovery_1 -->
<g id="edge17" class="edge">
<title>Drone1_WithRecovery&#45;&gt;Recovery_1</title>
<path fill="none" stroke="black" d="M1120.14,-215.7C1120.14,-207.98 1120.14,-198.71 1120.14,-190.11"/>
<polygon fill="black" stroke="black" points="1123.64,-190.1 1120.14,-180.1 1116.64,-190.1 1123.64,-190.1"/>
</g>
<!-- TakeOff_1 -->
<g id="node4" class="node">
<title>TakeOff_1</title>
<polygon fill="orange" stroke="black" points="201.14,-108 127.14,-108 127.14,-72 201.14,-72 201.14,-108"/>
<text text-anchor="middle" x="164.14" y="-87.8" font-family="Times,serif" font-size="9.00">Ⓜ TakeOff_1</text>
</g>
<!-- Drone1_Main&#45;&gt;TakeOff_1 -->
<g id="edge3" class="edge">
<title>Drone1_Main&#45;&gt;TakeOff_1</title>
<path fill="none" stroke="black" d="M621.61,-154.66C526.53,-141.43 307.7,-110.98 211.26,-97.56"/>
<polygon fill="black" stroke="black" points="211.6,-94.07 201.21,-96.16 210.63,-101 211.6,-94.07"/>
</g>
<!-- AcquireTarget_1 -->
<g id="node8" class="node">
<title>AcquireTarget_1</title>
<polygon fill="orange" stroke="black" points="473.14,-108 367.14,-108 367.14,-72 473.14,-72 473.14,-108"/>
<text text-anchor="middle" x="420.14" y="-87.8" font-family="Times,serif" font-size="9.00">Ⓜ AcquireTarget_1</text>
</g>
<!-- Drone1_Main&#45;&gt;AcquireTarget_1 -->
<g id="edge7" class="edge">
<title>Drone1_Main&#45;&gt;AcquireTarget_1</title>
<path fill="none" stroke="black" d="M621.54,-148.08C582.62,-137.05 526.24,-121.07 483.03,-108.82"/>
<polygon fill="black" stroke="black" points="483.76,-105.39 473.18,-106.03 481.85,-112.13 483.76,-105.39"/>
</g>
<!-- CleanSurface_1 -->
<g id="node11" class="node">
<title>CleanSurface_1</title>
<polygon fill="orange" stroke="black" points="717.64,-108 616.64,-108 616.64,-72 717.64,-72 717.64,-108"/>
<text text-anchor="middle" x="667.14" y="-87.8" font-family="Times,serif" font-size="9.00">Ⓜ CleanSurface_1</text>
</g>
<!-- Drone1_Main&#45;&gt;CleanSurface_1 -->
<g id="edge10" class="edge">
<title>Drone1_Main&#45;&gt;CleanSurface_1</title>
<path fill="none" stroke="black" d="M667.14,-143.7C667.14,-135.98 667.14,-126.71 667.14,-118.11"/>
<polygon fill="black" stroke="black" points="670.64,-118.1 667.14,-108.1 663.64,-118.1 670.64,-118.1"/>
</g>
<!-- Land_1 -->
<g id="node15" class="node">
<title>Land_1</title>
<polygon fill="orange" stroke="black" points="1012.14,-108 950.14,-108 950.14,-72 1012.14,-72 1012.14,-108"/>
<text text-anchor="middle" x="981.14" y="-87.8" font-family="Times,serif" font-size="9.00">Ⓜ Land_1</text>
</g>
<!-- Drone1_Main&#45;&gt;Land_1 -->
<g id="edge14" class="edge">
<title>Drone1_Main&#45;&gt;Land_1</title>
<path fill="none" stroke="black" d="M712.79,-150.82C773.77,-137.23 880.9,-113.34 939.67,-100.24"/>
<polygon fill="black" stroke="black" points="940.71,-103.6 949.71,-98.01 939.19,-96.76 940.71,-103.6"/>
</g>
<!-- Arm_1 -->
<g id="node5" class="node">
<title>Arm_1</title>
<ellipse fill="gray" stroke="black" cx="27.14" cy="-18" rx="27.27" ry="18"/>
<text text-anchor="middle" x="27.14" y="-15.8" font-family="Times,serif" font-size="9.00">Arm_1</text>
</g>
<!-- TakeOff_1&#45;&gt;Arm_1 -->
<g id="edge4" class="edge">
<title>TakeOff_1&#45;&gt;Arm_1</title>
<path fill="none" stroke="black" d="M130.62,-71.88C108.13,-60.38 78.75,-45.37 57.04,-34.28"/>
<polygon fill="black" stroke="black" points="58.46,-31.07 47.96,-29.64 55.27,-37.31 58.46,-31.07"/>
</g>
<!-- Offboard_1 -->
<g id="node6" class="node">
<title>Offboard_1</title>
<ellipse fill="gray" stroke="black" cx="111.14" cy="-18" rx="39.02" ry="18"/>
<text text-anchor="middle" x="111.14" y="-15.8" font-family="Times,serif" font-size="9.00">Offboard_1</text>
</g>
<!-- TakeOff_1&#45;&gt;Offboard_1 -->
<g id="edge5" class="edge">
<title>TakeOff_1&#45;&gt;Offboard_1</title>
<path fill="none" stroke="black" d="M151.03,-71.7C144.56,-63.14 136.63,-52.67 129.55,-43.33"/>
<polygon fill="black" stroke="black" points="132.19,-41 123.36,-35.14 126.61,-45.23 132.19,-41"/>
</g>
<!-- TakeOffCmd_1 -->
<g id="node7" class="node">
<title>TakeOffCmd_1</title>
<ellipse fill="gray" stroke="black" cx="216.14" cy="-18" rx="47.84" ry="18"/>
<text text-anchor="middle" x="216.14" y="-15.8" font-family="Times,serif" font-size="9.00">TakeOffCmd_1</text>
</g>
<!-- TakeOff_1&#45;&gt;TakeOffCmd_1 -->
<g id="edge6" class="edge">
<title>TakeOff_1&#45;&gt;TakeOffCmd_1</title>
<path fill="none" stroke="black" d="M176.99,-71.7C183.25,-63.27 190.9,-52.97 197.76,-43.73"/>
<polygon fill="black" stroke="black" points="200.63,-45.74 203.79,-35.62 195.01,-41.56 200.63,-45.74"/>
</g>
<!-- GoTo -->
<g id="node9" class="node">
<title>GoTo</title>
<ellipse fill="gray" stroke="black" cx="309.14" cy="-18" rx="27" ry="18"/>
<text text-anchor="middle" x="309.14" y="-15.8" font-family="Times,serif" font-size="9.00">GoTo</text>
</g>
<!-- AcquireTarget_1&#45;&gt;GoTo -->
<g id="edge8" class="edge">
<title>AcquireTarget_1&#45;&gt;GoTo</title>
<path fill="none" stroke="black" d="M392.98,-71.88C375.82,-61.05 353.72,-47.11 336.51,-36.26"/>
<polygon fill="black" stroke="black" points="338.34,-33.28 328.01,-30.9 334.6,-39.2 338.34,-33.28"/>
</g>
<!-- FindAttachmentPoint -->
<g id="node10" class="node">
<title>FindAttachmentPoint</title>
<ellipse fill="gray" stroke="black" cx="420.14" cy="-18" rx="66.29" ry="18"/>
<text text-anchor="middle" x="420.14" y="-15.8" font-family="Times,serif" font-size="9.00">FindAttachmentPoint</text>
</g>
<!-- AcquireTarget_1&#45;&gt;FindAttachmentPoint -->
<g id="edge9" class="edge">
<title>AcquireTarget_1&#45;&gt;FindAttachmentPoint</title>
<path fill="none" stroke="black" d="M420.14,-71.7C420.14,-63.98 420.14,-54.71 420.14,-46.11"/>
<polygon fill="black" stroke="black" points="423.64,-46.1 420.14,-36.1 416.64,-46.1 423.64,-46.1"/>
</g>
<!-- Clean Surface -->
<g id="node12" class="node">
<title>Clean Surface</title>
<ellipse fill="gray" stroke="black" cx="551.14" cy="-18" rx="46.53" ry="18"/>
<text text-anchor="middle" x="551.14" y="-15.8" font-family="Times,serif" font-size="9.00">Clean Surface</text>
</g>
<!-- CleanSurface_1&#45;&gt;Clean Surface -->
<g id="edge11" class="edge">
<title>CleanSurface_1&#45;&gt;Clean Surface</title>
<path fill="none" stroke="black" d="M638.76,-71.88C622.19,-61.88 601.22,-49.23 583.95,-38.8"/>
<polygon fill="black" stroke="black" points="585.67,-35.75 575.3,-33.58 582.05,-41.75 585.67,-35.75"/>
</g>
<!-- Spray Adhesive -->
<g id="node13" class="node">
<title>Spray Adhesive</title>
<ellipse fill="gray" stroke="black" cx="667.14" cy="-18" rx="51.27" ry="18"/>
<text text-anchor="middle" x="667.14" y="-15.8" font-family="Times,serif" font-size="9.00">Spray Adhesive</text>
</g>
<!-- CleanSurface_1&#45;&gt;Spray Adhesive -->
<g id="edge12" class="edge">
<title>CleanSurface_1&#45;&gt;Spray Adhesive</title>
<path fill="none" stroke="black" d="M667.14,-71.7C667.14,-63.98 667.14,-54.71 667.14,-46.11"/>
<polygon fill="black" stroke="black" points="670.64,-46.1 667.14,-36.1 663.64,-46.1 670.64,-46.1"/>
</g>
<!-- Send Sensor Attachment Location -->
<g id="node14" class="node">
<title>Send Sensor Attachment Location</title>
<ellipse fill="gray" stroke="black" cx="836.14" cy="-18" rx="99.76" ry="18"/>
<text text-anchor="middle" x="836.14" y="-15.8" font-family="Times,serif" font-size="9.00">Send Sensor Attachment Location</text>
</g>
<!-- CleanSurface_1&#45;&gt;Send Sensor Attachment Location -->
<g id="edge13" class="edge">
<title>CleanSurface_1&#45;&gt;Send Sensor Attachment Location</title>
<path fill="none" stroke="black" d="M708.48,-71.88C732.74,-61.83 763.49,-49.09 788.73,-38.64"/>
<polygon fill="black" stroke="black" points="790.21,-41.81 798.11,-34.75 787.53,-35.34 790.21,-41.81"/>
</g>
<!-- Land -->
<g id="node16" class="node">
<title>Land</title>
<ellipse fill="gray" stroke="black" cx="981.14" cy="-18" rx="27" ry="18"/>
<text text-anchor="middle" x="981.14" y="-15.8" font-family="Times,serif" font-size="9.00">Land</text>
</g>
<!-- Land_1&#45;&gt;Land -->
<g id="edge15" class="edge">
<title>Land_1&#45;&gt;Land</title>
<path fill="none" stroke="black" d="M981.14,-71.7C981.14,-63.98 981.14,-54.71 981.14,-46.11"/>
<polygon fill="black" stroke="black" points="984.64,-46.1 981.14,-36.1 977.64,-46.1 984.64,-46.1"/>
</g>
<!-- Disarm -->
<g id="node17" class="node">
<title>Disarm</title>
<ellipse fill="gray" stroke="black" cx="1055.14" cy="-18" rx="28.74" ry="18"/>
<text text-anchor="middle" x="1055.14" y="-15.8" font-family="Times,serif" font-size="9.00">Disarm</text>
</g>
<!-- Land_1&#45;&gt;Disarm -->
<g id="edge16" class="edge">
<title>Land_1&#45;&gt;Disarm</title>
<path fill="none" stroke="black" d="M999.43,-71.7C1009.35,-62.31 1021.7,-50.63 1032.25,-40.65"/>
<polygon fill="black" stroke="black" points="1034.7,-43.15 1039.55,-33.74 1029.89,-38.07 1034.7,-43.15"/>
</g>
<!-- Land* -->
<g id="node19" class="node">
<title>Land*</title>
<ellipse fill="gray" stroke="black" cx="1082.14" cy="-90" rx="27" ry="18"/>
<text text-anchor="middle" x="1082.14" y="-87.8" font-family="Times,serif" font-size="9.00">Land*</text>
</g>
<!-- Recovery_1&#45;&gt;Land* -->
<g id="edge18" class="edge">
<title>Recovery_1&#45;&gt;Land*</title>
<path fill="none" stroke="black" d="M1110.74,-143.7C1106.24,-135.4 1100.76,-125.31 1095.81,-116.19"/>
<polygon fill="black" stroke="black" points="1098.75,-114.26 1090.9,-107.14 1092.59,-117.6 1098.75,-114.26"/>
</g>
<!-- Disarm* -->
<g id="node20" class="node">
<title>Disarm*</title>
<ellipse fill="gray" stroke="black" cx="1158.14" cy="-90" rx="31.35" ry="18"/>
<text text-anchor="middle" x="1158.14" y="-87.8" font-family="Times,serif" font-size="9.00">Disarm*</text>
</g>
<!-- Recovery_1&#45;&gt;Disarm* -->
<g id="edge19" class="edge">
<title>Recovery_1&#45;&gt;Disarm*</title>
<path fill="none" stroke="black" d="M1129.53,-143.7C1133.97,-135.52 1139.35,-125.6 1144.25,-116.58"/>
<polygon fill="black" stroke="black" points="1147.42,-118.08 1149.11,-107.62 1141.26,-114.74 1147.42,-118.08"/>
</g>
<!-- Drone2_Main -->
<g id="node22" class="node">
<title>Drone2_Main</title>
<polygon fill="orange" stroke="black" points="1682.64,-180 1591.64,-180 1591.64,-144 1682.64,-144 1682.64,-180"/>
<text text-anchor="middle" x="1637.14" y="-159.8" font-family="Times,serif" font-size="9.00">Ⓜ Drone2_Main</text>
</g>
<!-- Drone2_WithRecovery&#45;&gt;Drone2_Main -->
<g id="edge21" class="edge">
<title>Drone2_WithRecovery&#45;&gt;Drone2_Main</title>
<path fill="none" stroke="black" d="M1637.14,-215.7C1637.14,-207.98 1637.14,-198.71 1637.14,-190.11"/>
<polygon fill="black" stroke="black" points="1640.64,-190.1 1637.14,-180.1 1633.64,-190.1 1640.64,-190.1"/>
</g>
<!-- Recovery_2 -->
<g id="node39" class="node">
<title>Recovery_2</title>
<polygon fill="orange" stroke="black" points="2253.14,-180 2171.14,-180 2171.14,-144 2253.14,-144 2253.14,-180"/>
<text text-anchor="middle" x="2212.14" y="-159.8" font-family="Times,serif" font-size="9.00">Ⓜ Recovery_2</text>
</g>
<!-- Drone2_WithRecovery&#45;&gt;Recovery_2 -->
<g id="edge38" class="edge">
<title>Drone2_WithRecovery&#45;&gt;Recovery_2</title>
<path fill="none" stroke="black" d="M1709.09,-224.24C1826.93,-209.89 2058.23,-181.74 2160.92,-169.23"/>
<polygon fill="black" stroke="black" points="2161.54,-172.69 2171.04,-168 2160.69,-165.74 2161.54,-172.69"/>
</g>
<!-- TakeOff_2 -->
<g id="node23" class="node">
<title>TakeOff_2</title>
<polygon fill="orange" stroke="black" points="1330.14,-108 1256.14,-108 1256.14,-72 1330.14,-72 1330.14,-108"/>
<text text-anchor="middle" x="1293.14" y="-87.8" font-family="Times,serif" font-size="9.00">Ⓜ TakeOff_2</text>
</g>
<!-- Drone2_Main&#45;&gt;TakeOff_2 -->
<g id="edge22" class="edge">
<title>Drone2_Main&#45;&gt;TakeOff_2</title>
<path fill="none" stroke="black" d="M1591.45,-151.7C1526.14,-138.41 1406.66,-114.1 1340.45,-100.63"/>
<polygon fill="black" stroke="black" points="1340.8,-97.13 1330.3,-98.56 1339.4,-103.99 1340.8,-97.13"/>
</g>
<!-- ApproachTarget_2 -->
<g id="node27" class="node">
<title>ApproachTarget_2</title>
<polygon fill="orange" stroke="black" points="1582.14,-108 1468.14,-108 1468.14,-72 1582.14,-72 1582.14,-108"/>
<text text-anchor="middle" x="1525.14" y="-87.8" font-family="Times,serif" font-size="9.00">Ⓜ ApproachTarget_2</text>
</g>
<!-- Drone2_Main&#45;&gt;ApproachTarget_2 -->
<g id="edge26" class="edge">
<title>Drone2_Main&#45;&gt;ApproachTarget_2</title>
<path fill="none" stroke="black" d="M1609.74,-143.88C1595.23,-134.81 1577.22,-123.55 1561.55,-113.76"/>
<polygon fill="black" stroke="black" points="1562.97,-110.52 1552.64,-108.19 1559.26,-116.46 1562.97,-110.52"/>
</g>
<!-- AttachSensor_2 -->
<g id="node30" class="node">
<title>AttachSensor_2</title>
<polygon fill="orange" stroke="black" points="1870.64,-108 1769.64,-108 1769.64,-72 1870.64,-72 1870.64,-108"/>
<text text-anchor="middle" x="1820.14" y="-87.8" font-family="Times,serif" font-size="9.00">Ⓜ AttachSensor_2</text>
</g>
<!-- Drone2_Main&#45;&gt;AttachSensor_2 -->
<g id="edge29" class="edge">
<title>Drone2_Main&#45;&gt;AttachSensor_2</title>
<path fill="none" stroke="black" d="M1681.9,-143.88C1707.25,-134.18 1739.15,-121.98 1765.91,-111.74"/>
<polygon fill="black" stroke="black" points="1767.42,-114.91 1775.51,-108.07 1764.92,-108.37 1767.42,-114.91"/>
</g>
<!-- Land_2 -->
<g id="node36" class="node">
<title>Land_2</title>
<polygon fill="orange" stroke="black" points="2163.14,-108 2101.14,-108 2101.14,-72 2163.14,-72 2163.14,-108"/>
<text text-anchor="middle" x="2132.14" y="-87.8" font-family="Times,serif" font-size="9.00">Ⓜ Land_2</text>
</g>
<!-- Drone2_Main&#45;&gt;Land_2 -->
<g id="edge35" class="edge">
<title>Drone2_Main&#45;&gt;Land_2</title>
<path fill="none" stroke="black" d="M1682.82,-154.54C1778.57,-141 1999.03,-109.82 2090.84,-96.84"/>
<polygon fill="black" stroke="black" points="2091.45,-100.29 2100.87,-95.42 2090.47,-93.36 2091.45,-100.29"/>
</g>
<!-- Arm_2 -->
<g id="node24" class="node">
<title>Arm_2</title>
<ellipse fill="gray" stroke="black" cx="1129.14" cy="-18" rx="27.27" ry="18"/>
<text text-anchor="middle" x="1129.14" y="-15.8" font-family="Times,serif" font-size="9.00">Arm_2</text>
</g>
<!-- TakeOff_2&#45;&gt;Arm_2 -->
<g id="edge23" class="edge">
<title>TakeOff_2&#45;&gt;Arm_2</title>
<path fill="none" stroke="black" d="M1255.96,-74.17C1230.31,-63.79 1195.48,-49.44 1165.14,-36 1163.33,-35.2 1161.49,-34.37 1159.63,-33.53"/>
<polygon fill="black" stroke="black" points="1160.92,-30.27 1150.38,-29.24 1157.98,-36.62 1160.92,-30.27"/>
</g>
<!-- Offboard_2 -->
<g id="node25" class="node">
<title>Offboard_2</title>
<ellipse fill="gray" stroke="black" cx="1213.14" cy="-18" rx="39.02" ry="18"/>
<text text-anchor="middle" x="1213.14" y="-15.8" font-family="Times,serif" font-size="9.00">Offboard_2</text>
</g>
<!-- TakeOff_2&#45;&gt;Offboard_2 -->
<g id="edge24" class="edge">
<title>TakeOff_2&#45;&gt;Offboard_2</title>
<path fill="none" stroke="black" d="M1273.36,-71.7C1262.79,-62.44 1249.65,-50.95 1238.35,-41.06"/>
<polygon fill="black" stroke="black" points="1240.34,-38.15 1230.51,-34.2 1235.73,-43.42 1240.34,-38.15"/>
</g>
<!-- TakeOffCmd_2 -->
<g id="node26" class="node">
<title>TakeOffCmd_2</title>
<ellipse fill="gray" stroke="black" cx="1318.14" cy="-18" rx="47.84" ry="18"/>
<text text-anchor="middle" x="1318.14" y="-15.8" font-family="Times,serif" font-size="9.00">TakeOffCmd_2</text>
</g>
<!-- TakeOff_2&#45;&gt;TakeOffCmd_2 -->
<g id="edge25" class="edge">
<title>TakeOff_2&#45;&gt;TakeOffCmd_2</title>
<path fill="none" stroke="black" d="M1299.32,-71.7C1302.13,-63.81 1305.53,-54.3 1308.65,-45.55"/>
<polygon fill="black" stroke="black" points="1311.96,-46.7 1312.03,-36.1 1305.37,-44.34 1311.96,-46.7"/>
</g>
<!-- GoTo* -->
<g id="node28" class="node">
<title>GoTo*</title>
<ellipse fill="gray" stroke="black" cx="1411.14" cy="-18" rx="27" ry="18"/>
<text text-anchor="middle" x="1411.14" y="-15.8" font-family="Times,serif" font-size="9.00">GoTo*</text>
</g>
<!-- ApproachTarget_2&#45;&gt;GoTo* -->
<g id="edge27" class="edge">
<title>ApproachTarget_2&#45;&gt;GoTo*</title>
<path fill="none" stroke="black" d="M1497.25,-71.88C1479.62,-61.05 1456.92,-47.11 1439.25,-36.26"/>
<polygon fill="black" stroke="black" points="1440.88,-33.15 1430.52,-30.9 1437.21,-39.12 1440.88,-33.15"/>
</g>
<!-- FindAttachmentPoint* -->
<g id="node29" class="node">
<title>FindAttachmentPoint*</title>
<ellipse fill="gray" stroke="black" cx="1525.14" cy="-18" rx="68.91" ry="18"/>
<text text-anchor="middle" x="1525.14" y="-15.8" font-family="Times,serif" font-size="9.00">FindAttachmentPoint*</text>
</g>
<!-- ApproachTarget_2&#45;&gt;FindAttachmentPoint* -->
<g id="edge28" class="edge">
<title>ApproachTarget_2&#45;&gt;FindAttachmentPoint*</title>
<path fill="none" stroke="black" d="M1525.14,-71.7C1525.14,-63.98 1525.14,-54.71 1525.14,-46.11"/>
<polygon fill="black" stroke="black" points="1528.64,-46.1 1525.14,-36.1 1521.64,-46.1 1528.64,-46.1"/>
</g>
<!-- GoTo** -->
<g id="node31" class="node">
<title>GoTo**</title>
<ellipse fill="gray" stroke="black" cx="1640.14" cy="-18" rx="28.08" ry="18"/>
<text text-anchor="middle" x="1640.14" y="-15.8" font-family="Times,serif" font-size="9.00">GoTo**</text>
</g>
<!-- AttachSensor_2&#45;&gt;GoTo** -->
<g id="edge30" class="edge">
<title>AttachSensor_2&#45;&gt;GoTo**</title>
<path fill="none" stroke="black" d="M1771.46,-71.99C1743.64,-62.02 1708.2,-48.87 1677.14,-36 1675.32,-35.25 1673.47,-34.46 1671.6,-33.65"/>
<polygon fill="black" stroke="black" points="1672.88,-30.39 1662.32,-29.52 1670.03,-36.79 1672.88,-30.39"/>
</g>
<!-- Expose Manipulator -->
<g id="node32" class="node">
<title>Expose Manipulator</title>
<ellipse fill="gray" stroke="black" cx="1750.14" cy="-18" rx="63.52" ry="18"/>
<text text-anchor="middle" x="1750.14" y="-15.8" font-family="Times,serif" font-size="9.00">Expose Manipulator</text>
</g>
<!-- AttachSensor_2&#45;&gt;Expose Manipulator -->
<g id="edge31" class="edge">
<title>AttachSensor_2&#45;&gt;Expose Manipulator</title>
<path fill="none" stroke="black" d="M1802.83,-71.7C1794.14,-63.01 1783.48,-52.34 1774.02,-42.89"/>
<polygon fill="black" stroke="black" points="1776.3,-40.22 1766.76,-35.62 1771.35,-45.17 1776.3,-40.22"/>
</g>
<!-- Align Manipulator -->
<g id="node33" class="node">
<title>Align Manipulator</title>
<ellipse fill="gray" stroke="black" cx="1890.14" cy="-18" rx="58.13" ry="18"/>
<text text-anchor="middle" x="1890.14" y="-15.8" font-family="Times,serif" font-size="9.00">Align Manipulator</text>
</g>
<!-- AttachSensor_2&#45;&gt;Align Manipulator -->
<g id="edge32" class="edge">
<title>AttachSensor_2&#45;&gt;Align Manipulator</title>
<path fill="none" stroke="black" d="M1837.44,-71.7C1846.13,-63.01 1856.79,-52.34 1866.25,-42.89"/>
<polygon fill="black" stroke="black" points="1868.92,-45.17 1873.51,-35.62 1863.97,-40.22 1868.92,-45.17"/>
</g>
<!-- Apply Constant Pressure -->
<g id="node34" class="node">
<title>Apply Constant Pressure</title>
<ellipse fill="gray" stroke="black" cx="2042.14" cy="-18" rx="75.77" ry="18"/>
<text text-anchor="middle" x="2042.14" y="-15.8" font-family="Times,serif" font-size="9.00">Apply Constant Pressure</text>
</g>
<!-- AttachSensor_2&#45;&gt;Apply Constant Pressure -->
<g id="edge33" class="edge">
<title>AttachSensor_2&#45;&gt;Apply Constant Pressure</title>
<path fill="none" stroke="black" d="M1870.79,-73.03C1906,-61.93 1952.85,-47.15 1988.66,-35.86"/>
<polygon fill="black" stroke="black" points="1989.96,-39.12 1998.44,-32.78 1987.85,-32.45 1989.96,-39.12"/>
</g>
<!-- Attach Sensor -->
<g id="node35" class="node">
<title>Attach Sensor</title>
<ellipse fill="gray" stroke="black" cx="2182.14" cy="-18" rx="46.53" ry="18"/>
<text text-anchor="middle" x="2182.14" y="-15.8" font-family="Times,serif" font-size="9.00">Attach Sensor</text>
</g>
<!-- AttachSensor_2&#45;&gt;Attach Sensor -->
<g id="edge34" class="edge">
<title>AttachSensor_2&#45;&gt;Attach Sensor</title>
<path fill="none" stroke="black" d="M1870.79,-82.3C1931.99,-73.73 2037.85,-57.41 2127.14,-36 2130.7,-35.15 2134.37,-34.19 2138.04,-33.17"/>
<polygon fill="black" stroke="black" points="2139.06,-36.52 2147.7,-30.39 2137.12,-29.79 2139.06,-36.52"/>
</g>
<!-- Land** -->
<g id="node37" class="node">
<title>Land**</title>
<ellipse fill="gray" stroke="black" cx="2275.14" cy="-18" rx="28.08" ry="18"/>
<text text-anchor="middle" x="2275.14" y="-15.8" font-family="Times,serif" font-size="9.00">Land**</text>
</g>
<!-- Land_2&#45;&gt;Land** -->
<g id="edge36" class="edge">
<title>Land_2&#45;&gt;Land**</title>
<path fill="none" stroke="black" d="M2163.16,-73.81C2187.24,-62.03 2220.44,-45.77 2244.44,-34.03"/>
<polygon fill="black" stroke="black" points="2246.02,-37.15 2253.46,-29.61 2242.94,-30.86 2246.02,-37.15"/>
</g>
<!-- Disarm** -->
<g id="node38" class="node">
<title>Disarm**</title>
<ellipse fill="gray" stroke="black" cx="2355.14" cy="-18" rx="34.13" ry="18"/>
<text text-anchor="middle" x="2355.14" y="-15.8" font-family="Times,serif" font-size="9.00">Disarm**</text>
</g>
<!-- Land_2&#45;&gt;Disarm** -->
<g id="edge37" class="edge">
<title>Land_2&#45;&gt;Disarm**</title>
<path fill="none" stroke="black" d="M2163.41,-75.18C2166.34,-74.05 2169.28,-72.97 2172.14,-72 2232.98,-51.38 2251.03,-55.85 2312.14,-36 2314.54,-35.22 2317,-34.37 2319.48,-33.49"/>
<polygon fill="black" stroke="black" points="2320.8,-36.73 2328.95,-29.95 2318.35,-30.17 2320.8,-36.73"/>
</g>
<!-- Land*** -->
<g id="node40" class="node">
<title>Land***</title>
<ellipse fill="gray" stroke="black" cx="2212.14" cy="-90" rx="30.7" ry="18"/>
<text text-anchor="middle" x="2212.14" y="-87.8" font-family="Times,serif" font-size="9.00">Land***</text>
</g>
<!-- Recovery_2&#45;&gt;Land*** -->
<g id="edge39" class="edge">
<title>Recovery_2&#45;&gt;Land***</title>
<path fill="none" stroke="black" d="M2212.14,-143.7C2212.14,-135.98 2212.14,-126.71 2212.14,-118.11"/>
<polygon fill="black" stroke="black" points="2215.64,-118.1 2212.14,-108.1 2208.64,-118.1 2215.64,-118.1"/>
</g>
<!-- Disarm*** -->
<g id="node41" class="node">
<title>Disarm***</title>
<ellipse fill="gray" stroke="black" cx="2297.14" cy="-90" rx="36.25" ry="18"/>
<text text-anchor="middle" x="2297.14" y="-87.8" font-family="Times,serif" font-size="9.00">Disarm***</text>
</g>
<!-- Recovery_2&#45;&gt;Disarm*** -->
<g id="edge40" class="edge">
<title>Recovery_2&#45;&gt;Disarm***</title>
<path fill="none" stroke="black" d="M2233.15,-143.7C2244.65,-134.22 2259.01,-122.4 2271.2,-112.36"/>
<polygon fill="black" stroke="black" points="2273.74,-114.8 2279.24,-105.74 2269.29,-109.39 2273.74,-114.8"/>
</g>
</g>
</svg>
