<?xml version="1.0" encoding="UTF-8" standalone="no"?>
<!DOCTYPE svg PUBLIC "-//W3C//DTD SVG 1.1//EN"
 "http://www.w3.org/Graphics/SVG/1.1/DTD/svg11.dtd">
<!-- Generated by graphviz version 2.43.0 (0)
 -->
<!-- Title: pastafarianism Pages: 1 -->
<svg width="2722pt" height="352pt"
 viewBox="0.00 0.00 2721.56 352.00" xmlns="http://www.w3.org/2000/svg" xmlns:xlink="http://www.w3.org/1999/xlink">
<g id="graph0" class="graph" transform="scale(1 1) rotate(0) translate(4 348)">
<title>pastafarianism</title>
<polygon fill="white" stroke="transparent" points="-4,4 -4,-348 2717.56,-348 2717.56,4 -4,4"/>
<!-- Phase1 -->
<g id="node1" class="node">
<title>Phase1</title>
<polygon fill="gold" stroke="black" points="1606.38,-344 1474.54,-344 1440.62,-288 1572.46,-288 1606.38,-344"/>
<text text-anchor="middle" x="1523.5" y="-318.8" font-family="Times,serif" font-size="9.00">⚡ Phase1</text>
<text text-anchor="middle" x="1523.5" y="-308.8" font-family="Times,serif" font-size="9.00">SuccessOnAll</text>
</g>
<!-- Drone1_WithRecovery -->
<g id="node2" class="node">
<title>Drone1_WithRecovery</title>
<polygon fill="cyan" stroke="black" points="1287.98,-226.54 1287.98,-241.46 1239.66,-252 1171.34,-252 1123.02,-241.46 1123.02,-226.54 1171.34,-216 1239.66,-216 1287.98,-226.54"/>
<text text-anchor="middle" x="1205.5" y="-231.8" font-family="Times,serif" font-size="9.00">Ⓜ Drone1_WithRecovery</text>
</g>
<!-- Phase1&#45;&gt;Drone1_WithRecovery -->
<g id="edge1" class="edge">
<title>Phase1&#45;&gt;Drone1_WithRecovery</title>
<path fill="none" stroke="black" d="M1444.89,-295.22C1390.23,-281.47 1318.37,-263.4 1267.69,-250.65"/>
<polygon fill="black" stroke="black" points="1268.4,-247.22 1257.85,-248.17 1266.7,-254 1268.4,-247.22"/>
</g>
<!-- Drone2_WithRecovery -->
<g id="node27" class="node">
<title>Drone2_WithRecovery</title>
<polygon fill="cyan" stroke="black" points="1961.98,-226.54 1961.98,-241.46 1913.66,-252 1845.34,-252 1797.02,-241.46 1797.02,-226.54 1845.34,-216 1913.66,-216 1961.98,-226.54"/>
<text text-anchor="middle" x="1879.5" y="-231.8" font-family="Times,serif" font-size="9.00">Ⓜ Drone2_WithRecovery</text>
</g>
<!-- Phase1&#45;&gt;Drone2_WithRecovery -->
<g id="edge26" class="edge">
<title>Phase1&#45;&gt;Drone2_WithRecovery</title>
<path fill="none" stroke="black" d="M1581.09,-302.06C1644.83,-287.74 1747.33,-264.7 1814.06,-249.71"/>
<polygon fill="black" stroke="black" points="1815.05,-253.07 1824.04,-247.46 1813.52,-246.24 1815.05,-253.07"/>
</g>
<!-- Drone1_Main -->
<g id="node3" class="node">
<title>Drone1_Main</title>
<polygon fill="orange" stroke="black" points="618,-180 527,-180 527,-144 618,-144 618,-180"/>
<text text-anchor="middle" x="572.5" y="-159.8" font-family="Times,serif" font-size="9.00">Ⓜ Drone1_Main</text>
</g>
<!-- Drone1_WithRecovery&#45;&gt;Drone1_Main -->
<g id="edge2" class="edge">
<title>Drone1_WithRecovery&#45;&gt;Drone1_Main</title>
<path fill="none" stroke="black" d="M1131.03,-224.76C1002.67,-210.57 742.6,-181.81 628.4,-169.18"/>
<polygon fill="black" stroke="black" points="628.47,-165.67 618.14,-168.05 627.7,-172.63 628.47,-165.67"/>
</g>
<!-- Recovery_1 -->
<g id="node24" class="node">
<title>Recovery_1</title>
<polygon fill="orange" stroke="black" points="1246.5,-180 1164.5,-180 1164.5,-144 1246.5,-144 1246.5,-180"/>
<text text-anchor="middle" x="1205.5" y="-159.8" font-family="Times,serif" font-size="9.00">Ⓜ Recovery_1</text>
</g>
<!-- Drone1_WithRecovery&#45;&gt;Recovery_1 -->
<g id="edge23" class="edge">
<title>Drone1_WithRecovery&#45;&gt;Recovery_1</title>
<path fill="none" stroke="black" d="M1205.5,-215.7C1205.5,-207.98 1205.5,-198.71 1205.5,-190.11"/>
<polygon fill="black" stroke="black" points="1209,-190.1 1205.5,-180.1 1202,-190.1 1209,-190.1"/>
</g>
<!-- ArmDrone_1 -->
<g id="node4" class="node">
<title>ArmDrone_1</title>
<polygon fill="orange" stroke="black" points="87,-108 0,-108 0,-72 87,-72 87,-108"/>
<text text-anchor="middle" x="43.5" y="-87.8" font-family="Times,serif" font-size="9.00">Ⓜ ArmDrone_1</text>
</g>
<!-- Drone1_Main&#45;&gt;ArmDrone_1 -->
<g id="edge3" class="edge">
<title>Drone1_Main&#45;&gt;ArmDrone_1</title>
<path fill="none" stroke="black" d="M526.95,-159.05C443.25,-154.8 259.39,-142.35 97.17,-108.12"/>
<polygon fill="black" stroke="black" points="97.53,-104.62 87.01,-105.94 96.06,-111.46 97.53,-104.62"/>
</g>
<!-- Go_offboard_1 -->
<g id="node6" class="node">
<title>Go_offboard_1</title>
<polygon fill="orange" stroke="black" points="200,-108 105,-108 105,-72 200,-72 200,-108"/>
<text text-anchor="middle" x="152.5" y="-87.8" font-family="Times,serif" font-size="9.00">Ⓜ Go_offboard_1</text>
</g>
<!-- Drone1_Main&#45;&gt;Go_offboard_1 -->
<g id="edge5" class="edge">
<title>Drone1_Main&#45;&gt;Go_offboard_1</title>
<path fill="none" stroke="black" d="M526.84,-156.48C459.55,-149.35 329.72,-133.81 210.31,-107.99"/>
<polygon fill="black" stroke="black" points="210.78,-104.51 200.26,-105.79 209.28,-111.35 210.78,-104.51"/>
</g>
<!-- TakeOff_1 -->
<g id="node8" class="node">
<title>TakeOff_1</title>
<polygon fill="orange" stroke="black" points="292.5,-108 218.5,-108 218.5,-72 292.5,-72 292.5,-108"/>
<text text-anchor="middle" x="255.5" y="-87.8" font-family="Times,serif" font-size="9.00">Ⓜ TakeOff_1</text>
</g>
<!-- Drone1_Main&#45;&gt;TakeOff_1 -->
<g id="edge7" class="edge">
<title>Drone1_Main&#45;&gt;TakeOff_1</title>
<path fill="none" stroke="black" d="M526.9,-154.38C474.64,-146.29 386.36,-131.07 302.42,-108.03"/>
<polygon fill="black" stroke="black" points="303.31,-104.65 292.74,-105.33 301.43,-111.39 303.31,-104.65"/>
</g>
<!-- AcquireTarget_1 -->
<g id="node10" class="node">
<title>AcquireTarget_1</title>
<polygon fill="orange" stroke="black" points="416.5,-108 310.5,-108 310.5,-72 416.5,-72 416.5,-108"/>
<text text-anchor="middle" x="363.5" y="-87.8" font-family="Times,serif" font-size="9.00">Ⓜ AcquireTarget_1</text>
</g>
<!-- Drone1_Main&#45;&gt;AcquireTarget_1 -->
<g id="edge9" class="edge">
<title>Drone1_Main&#45;&gt;AcquireTarget_1</title>
<path fill="none" stroke="black" d="M526.89,-145.72C496.72,-135.62 456.82,-122.26 424.01,-111.27"/>
<polygon fill="black" stroke="black" points="425.11,-107.94 414.51,-108.09 422.88,-114.58 425.11,-107.94"/>
</g>
<!-- FindAttachmentPoint_1 -->
<g id="node12" class="node">
<title>FindAttachmentPoint_1</title>
<polygon fill="orange" stroke="black" points="572,-108 435,-108 435,-72 572,-72 572,-108"/>
<text text-anchor="middle" x="503.5" y="-87.8" font-family="Times,serif" font-size="9.00">Ⓜ FindAttachmentPoint_1</text>
</g>
<!-- Drone1_Main&#45;&gt;FindAttachmentPoint_1 -->
<g id="edge11" class="edge">
<title>Drone1_Main&#45;&gt;FindAttachmentPoint_1</title>
<path fill="none" stroke="black" d="M555.44,-143.7C547,-135.14 536.68,-124.66 527.46,-115.3"/>
<polygon fill="black" stroke="black" points="529.87,-112.77 520.36,-108.1 524.89,-117.68 529.87,-112.77"/>
</g>
<!-- CleanSurface_1 -->
<g id="node14" class="node">
<title>CleanSurface_1</title>
<polygon fill="orange" stroke="black" points="691,-108 590,-108 590,-72 691,-72 691,-108"/>
<text text-anchor="middle" x="640.5" y="-87.8" font-family="Times,serif" font-size="9.00">Ⓜ CleanSurface_1</text>
</g>
<!-- Drone1_Main&#45;&gt;CleanSurface_1 -->
<g id="edge13" class="edge">
<title>Drone1_Main&#45;&gt;CleanSurface_1</title>
<path fill="none" stroke="black" d="M589.31,-143.7C597.63,-135.14 607.81,-124.66 616.89,-115.3"/>
<polygon fill="black" stroke="black" points="619.43,-117.72 623.88,-108.1 614.41,-112.84 619.43,-117.72"/>
</g>
<!-- SprayAdhesive_1 -->
<g id="node16" class="node">
<title>SprayAdhesive_1</title>
<polygon fill="orange" stroke="black" points="817.5,-108 709.5,-108 709.5,-72 817.5,-72 817.5,-108"/>
<text text-anchor="middle" x="763.5" y="-87.8" font-family="Times,serif" font-size="9.00">Ⓜ SprayAdhesive_1</text>
</g>
<!-- Drone1_Main&#45;&gt;SprayAdhesive_1 -->
<g id="edge15" class="edge">
<title>Drone1_Main&#45;&gt;SprayAdhesive_1</title>
<path fill="none" stroke="black" d="M618.25,-144.23C645.02,-134.42 679.03,-121.96 707.41,-111.56"/>
<polygon fill="black" stroke="black" points="708.61,-114.84 716.8,-108.12 706.2,-108.27 708.61,-114.84"/>
</g>
<!-- SendSensorAttachmentLocation_1 -->
<g id="node18" class="node">
<title>SendSensorAttachmentLocation_1</title>
<polygon fill="orange" stroke="black" points="1023,-108 836,-108 836,-72 1023,-72 1023,-108"/>
<text text-anchor="middle" x="929.5" y="-87.8" font-family="Times,serif" font-size="9.00">Ⓜ SendSensorAttachmentLocation_1</text>
</g>
<!-- Drone1_Main&#45;&gt;SendSensorAttachmentLocation_1 -->
<g id="edge17" class="edge">
<title>Drone1_Main&#45;&gt;SendSensorAttachmentLocation_1</title>
<path fill="none" stroke="black" d="M618.08,-152.06C671.83,-141.52 762.67,-123.71 832.41,-110.04"/>
<polygon fill="black" stroke="black" points="833.4,-113.41 842.54,-108.05 832.06,-106.54 833.4,-113.41"/>
</g>
<!-- Land_1 -->
<g id="node20" class="node">
<title>Land_1</title>
<polygon fill="orange" stroke="black" points="1122.5,-108 1060.5,-108 1060.5,-72 1122.5,-72 1122.5,-108"/>
<text text-anchor="middle" x="1091.5" y="-87.8" font-family="Times,serif" font-size="9.00">Ⓜ Land_1</text>
</g>
<!-- Drone1_Main&#45;&gt;Land_1 -->
<g id="edge19" class="edge">
<title>Drone1_Main&#45;&gt;Land_1</title>
<path fill="none" stroke="black" d="M618.15,-158.18C701.1,-152.5 881.8,-137.65 1031.5,-108 1037.7,-106.77 1044.2,-105.22 1050.53,-103.55"/>
<polygon fill="black" stroke="black" points="1051.57,-106.9 1060.28,-100.87 1049.71,-100.15 1051.57,-106.9"/>
</g>
<!-- Arm_1 -->
<g id="node5" class="node">
<title>Arm_1</title>
<ellipse fill="gray" stroke="black" cx="43.5" cy="-18" rx="27.27" ry="18"/>
<text text-anchor="middle" x="43.5" y="-15.8" font-family="Times,serif" font-size="9.00">Arm_1</text>
</g>
<!-- ArmDrone_1&#45;&gt;Arm_1 -->
<g id="edge4" class="edge">
<title>ArmDrone_1&#45;&gt;Arm_1</title>
<path fill="none" stroke="black" d="M43.5,-71.7C43.5,-63.98 43.5,-54.71 43.5,-46.11"/>
<polygon fill="black" stroke="black" points="47,-46.1 43.5,-36.1 40,-46.1 47,-46.1"/>
</g>
<!-- Offboard_1 -->
<g id="node7" class="node">
<title>Offboard_1</title>
<ellipse fill="gray" stroke="black" cx="151.5" cy="-18" rx="39.02" ry="18"/>
<text text-anchor="middle" x="151.5" y="-15.8" font-family="Times,serif" font-size="9.00">Offboard_1</text>
</g>
<!-- Go_offboard_1&#45;&gt;Offboard_1 -->
<g id="edge6" class="edge">
<title>Go_offboard_1&#45;&gt;Offboard_1</title>
<path fill="none" stroke="black" d="M152.25,-71.7C152.14,-63.98 152.01,-54.71 151.89,-46.11"/>
<polygon fill="black" stroke="black" points="155.39,-46.05 151.74,-36.1 148.39,-46.15 155.39,-46.05"/>
</g>
<!-- TakeOffCmd_1 -->
<g id="node9" class="node">
<title>TakeOffCmd_1</title>
<ellipse fill="gray" stroke="black" cx="256.5" cy="-18" rx="47.84" ry="18"/>
<text text-anchor="middle" x="256.5" y="-15.8" font-family="Times,serif" font-size="9.00">TakeOffCmd_1</text>
</g>
<!-- TakeOff_1&#45;&gt;TakeOffCmd_1 -->
<g id="edge8" class="edge">
<title>TakeOff_1&#45;&gt;TakeOffCmd_1</title>
<path fill="none" stroke="black" d="M255.75,-71.7C255.86,-63.98 255.99,-54.71 256.11,-46.11"/>
<polygon fill="black" stroke="black" points="259.61,-46.15 256.26,-36.1 252.61,-46.05 259.61,-46.15"/>
</g>
<!-- GoTo -->
<g id="node11" class="node">
<title>GoTo</title>
<ellipse fill="gray" stroke="black" cx="363.5" cy="-18" rx="27" ry="18"/>
<text text-anchor="middle" x="363.5" y="-15.8" font-family="Times,serif" font-size="9.00">GoTo</text>
</g>
<!-- AcquireTarget_1&#45;&gt;GoTo -->
<g id="edge10" class="edge">
<title>AcquireTarget_1&#45;&gt;GoTo</title>
<path fill="none" stroke="black" d="M363.5,-71.7C363.5,-63.98 363.5,-54.71 363.5,-46.11"/>
<polygon fill="black" stroke="black" points="367,-46.1 363.5,-36.1 360,-46.1 367,-46.1"/>
</g>
<!-- FindAttachmentPoint -->
<g id="node13" class="node">
<title>FindAttachmentPoint</title>
<ellipse fill="gray" stroke="black" cx="503.5" cy="-18" rx="66.29" ry="18"/>
<text text-anchor="middle" x="503.5" y="-15.8" font-family="Times,serif" font-size="9.00">FindAttachmentPoint</text>
</g>
<!-- FindAttachmentPoint_1&#45;&gt;FindAttachmentPoint -->
<g id="edge12" class="edge">
<title>FindAttachmentPoint_1&#45;&gt;FindAttachmentPoint</title>
<path fill="none" stroke="black" d="M503.5,-71.7C503.5,-63.98 503.5,-54.71 503.5,-46.11"/>
<polygon fill="black" stroke="black" points="507,-46.1 503.5,-36.1 500,-46.1 507,-46.1"/>
</g>
<!-- Clean Surface -->
<g id="node15" class="node">
<title>Clean Surface</title>
<ellipse fill="gray" stroke="black" cx="640.5" cy="-18" rx="46.53" ry="18"/>
<text text-anchor="middle" x="640.5" y="-15.8" font-family="Times,serif" font-size="9.00">Clean Surface</text>
</g>
<!-- CleanSurface_1&#45;&gt;Clean Surface -->
<g id="edge14" class="edge">
<title>CleanSurface_1&#45;&gt;Clean Surface</title>
<path fill="none" stroke="black" d="M640.5,-71.7C640.5,-63.98 640.5,-54.71 640.5,-46.11"/>
<polygon fill="black" stroke="black" points="644,-46.1 640.5,-36.1 637,-46.1 644,-46.1"/>
</g>
<!-- Spray Adhesive -->
<g id="node17" class="node">
<title>Spray Adhesive</title>
<ellipse fill="gray" stroke="black" cx="758.5" cy="-18" rx="51.27" ry="18"/>
<text text-anchor="middle" x="758.5" y="-15.8" font-family="Times,serif" font-size="9.00">Spray Adhesive</text>
</g>
<!-- SprayAdhesive_1&#45;&gt;Spray Adhesive -->
<g id="edge16" class="edge">
<title>SprayAdhesive_1&#45;&gt;Spray Adhesive</title>
<path fill="none" stroke="black" d="M762.26,-71.7C761.71,-63.98 761.05,-54.71 760.44,-46.11"/>
<polygon fill="black" stroke="black" points="763.93,-45.83 759.72,-36.1 756.94,-46.33 763.93,-45.83"/>
</g>
<!-- Send Sensor Attachment Location -->
<g id="node19" class="node">
<title>Send Sensor Attachment Location</title>
<ellipse fill="gray" stroke="black" cx="927.5" cy="-18" rx="99.76" ry="18"/>
<text text-anchor="middle" x="927.5" y="-15.8" font-family="Times,serif" font-size="9.00">Send Sensor Attachment Location</text>
</g>
<!-- SendSensorAttachmentLocation_1&#45;&gt;Send Sensor Attachment Location -->
<g id="edge18" class="edge">
<title>SendSensorAttachmentLocation_1&#45;&gt;Send Sensor Attachment Location</title>
<path fill="none" stroke="black" d="M929.01,-71.7C928.79,-63.98 928.52,-54.71 928.27,-46.11"/>
<polygon fill="black" stroke="black" points="931.77,-46 927.99,-36.1 924.78,-46.2 931.77,-46"/>
</g>
<!-- UpdateTarget -->
<g id="node21" class="node">
<title>UpdateTarget</title>
<ellipse fill="gray" stroke="black" cx="1091.5" cy="-18" rx="46.38" ry="18"/>
<text text-anchor="middle" x="1091.5" y="-15.8" font-family="Times,serif" font-size="9.00">UpdateTarget</text>
</g>
<!-- Land_1&#45;&gt;UpdateTarget -->
<g id="edge20" class="edge">
<title>Land_1&#45;&gt;UpdateTarget</title>
<path fill="none" stroke="black" d="M1091.5,-71.7C1091.5,-63.98 1091.5,-54.71 1091.5,-46.11"/>
<polygon fill="black" stroke="black" points="1095,-46.1 1091.5,-36.1 1088,-46.1 1095,-46.1"/>
</g>
<!-- Land -->
<g id="node22" class="node">
<title>Land</title>
<ellipse fill="gray" stroke="black" cx="1182.5" cy="-18" rx="27" ry="18"/>
<text text-anchor="middle" x="1182.5" y="-15.8" font-family="Times,serif" font-size="9.00">Land</text>
</g>
<!-- Land_1&#45;&gt;Land -->
<g id="edge21" class="edge">
<title>Land_1&#45;&gt;Land</title>
<path fill="none" stroke="black" d="M1113.99,-71.7C1127.16,-61.57 1143.81,-48.76 1157.4,-38.31"/>
<polygon fill="black" stroke="black" points="1159.61,-41.02 1165.4,-32.15 1155.34,-35.48 1159.61,-41.02"/>
</g>
<!-- Disarm -->
<g id="node23" class="node">
<title>Disarm</title>
<ellipse fill="gray" stroke="black" cx="1256.5" cy="-18" rx="28.74" ry="18"/>
<text text-anchor="middle" x="1256.5" y="-15.8" font-family="Times,serif" font-size="9.00">Disarm</text>
</g>
<!-- Land_1&#45;&gt;Disarm -->
<g id="edge22" class="edge">
<title>Land_1&#45;&gt;Disarm</title>
<path fill="none" stroke="black" d="M1122.93,-75.61C1125.83,-74.38 1128.72,-73.17 1131.5,-72 1170.09,-55.82 1180.06,-52.55 1218.5,-36 1220.34,-35.21 1222.23,-34.39 1224.14,-33.55"/>
<polygon fill="black" stroke="black" points="1225.91,-36.6 1233.64,-29.35 1223.08,-30.19 1225.91,-36.6"/>
</g>
<!-- Land* -->
<g id="node25" class="node">
<title>Land*</title>
<ellipse fill="gray" stroke="black" cx="1167.5" cy="-90" rx="27" ry="18"/>
<text text-anchor="middle" x="1167.5" y="-87.8" font-family="Times,serif" font-size="9.00">Land*</text>
</g>
<!-- Recovery_1&#45;&gt;Land* -->
<g id="edge24" class="edge">
<title>Recovery_1&#45;&gt;Land*</title>
<path fill="none" stroke="black" d="M1196.11,-143.7C1191.6,-135.4 1186.13,-125.31 1181.17,-116.19"/>
<polygon fill="black" stroke="black" points="1184.11,-114.26 1176.26,-107.14 1177.96,-117.6 1184.11,-114.26"/>
</g>
<!-- Disarm* -->
<g id="node26" class="node">
<title>Disarm*</title>
<ellipse fill="gray" stroke="black" cx="1243.5" cy="-90" rx="31.35" ry="18"/>
<text text-anchor="middle" x="1243.5" y="-87.8" font-family="Times,serif" font-size="9.00">Disarm*</text>
</g>
<!-- Recovery_1&#45;&gt;Disarm* -->
<g id="edge25" class="edge">
<title>Recovery_1&#45;&gt;Disarm*</title>
<path fill="none" stroke="black" d="M1214.89,-143.7C1219.33,-135.52 1224.72,-125.6 1229.61,-116.58"/>
<polygon fill="black" stroke="black" points="1232.78,-118.08 1234.48,-107.62 1226.63,-114.74 1232.78,-118.08"/>
</g>
<!-- Drone2_Main -->
<g id="node28" class="node">
<title>Drone2_Main</title>
<polygon fill="orange" stroke="black" points="1925,-180 1834,-180 1834,-144 1925,-144 1925,-180"/>
<text text-anchor="middle" x="1879.5" y="-159.8" font-family="Times,serif" font-size="9.00">Ⓜ Drone2_Main</text>
</g>
<!-- Drone2_WithRecovery&#45;&gt;Drone2_Main -->
<g id="edge27" class="edge">
<title>Drone2_WithRecovery&#45;&gt;Drone2_Main</title>
<path fill="none" stroke="black" d="M1879.5,-215.7C1879.5,-207.98 1879.5,-198.71 1879.5,-190.11"/>
<polygon fill="black" stroke="black" points="1883,-190.1 1879.5,-180.1 1876,-190.1 1883,-190.1"/>
</g>
<!-- Recovery_2 -->
<g id="node51" class="node">
<title>Recovery_2</title>
<polygon fill="orange" stroke="black" points="2625.5,-180 2543.5,-180 2543.5,-144 2625.5,-144 2625.5,-180"/>
<text text-anchor="middle" x="2584.5" y="-159.8" font-family="Times,serif" font-size="9.00">Ⓜ Recovery_2</text>
</g>
<!-- Drone2_WithRecovery&#45;&gt;Recovery_2 -->
<g id="edge50" class="edge">
<title>Drone2_WithRecovery&#45;&gt;Recovery_2</title>
<path fill="none" stroke="black" d="M1956.63,-225.34C2101.57,-210.95 2411,-180.23 2533.27,-168.09"/>
<polygon fill="black" stroke="black" points="2533.87,-171.54 2543.47,-167.07 2533.18,-164.58 2533.87,-171.54"/>
</g>
<!-- ArmDrone_2 -->
<g id="node29" class="node">
<title>ArmDrone_2</title>
<polygon fill="orange" stroke="black" points="1380,-108 1293,-108 1293,-72 1380,-72 1380,-108"/>
<text text-anchor="middle" x="1336.5" y="-87.8" font-family="Times,serif" font-size="9.00">Ⓜ ArmDrone_2</text>
</g>
<!-- Drone2_Main&#45;&gt;ArmDrone_2 -->
<g id="edge28" class="edge">
<title>Drone2_Main&#45;&gt;ArmDrone_2</title>
<path fill="none" stroke="black" d="M1833.98,-159.25C1748.39,-155.29 1557.71,-143.22 1390.01,-108.08"/>
<polygon fill="black" stroke="black" points="1390.52,-104.61 1380.01,-105.95 1389.06,-111.46 1390.52,-104.61"/>
</g>
<!-- Go_offboard_2 -->
<g id="node31" class="node">
<title>Go_offboard_2</title>
<polygon fill="orange" stroke="black" points="1493,-108 1398,-108 1398,-72 1493,-72 1493,-108"/>
<text text-anchor="middle" x="1445.5" y="-87.8" font-family="Times,serif" font-size="9.00">Ⓜ Go_offboard_2</text>
</g>
<!-- Drone2_Main&#45;&gt;Go_offboard_2 -->
<g id="edge30" class="edge">
<title>Drone2_Main&#45;&gt;Go_offboard_2</title>
<path fill="none" stroke="black" d="M1833.84,-156.82C1764.42,-149.97 1628.11,-134.61 1503.37,-108"/>
<polygon fill="black" stroke="black" points="1503.77,-104.51 1493.26,-105.81 1502.29,-111.35 1503.77,-104.51"/>
</g>
<!-- TakeOff_2 -->
<g id="node33" class="node">
<title>TakeOff_2</title>
<polygon fill="orange" stroke="black" points="1585.5,-108 1511.5,-108 1511.5,-72 1585.5,-72 1585.5,-108"/>
<text text-anchor="middle" x="1548.5" y="-87.8" font-family="Times,serif" font-size="9.00">Ⓜ TakeOff_2</text>
</g>
<!-- Drone2_Main&#45;&gt;TakeOff_2 -->
<g id="edge32" class="edge">
<title>Drone2_Main&#45;&gt;TakeOff_2</title>
<path fill="none" stroke="black" d="M1833.55,-154.91C1778.75,-147.12 1684.4,-131.98 1595.43,-108.02"/>
<polygon fill="black" stroke="black" points="1596.3,-104.63 1585.73,-105.36 1594.45,-111.38 1596.3,-104.63"/>
</g>
<!-- ApproachTarget_2 -->
<g id="node35" class="node">
<title>ApproachTarget_2</title>
<polygon fill="orange" stroke="black" points="1717.5,-108 1603.5,-108 1603.5,-72 1717.5,-72 1717.5,-108"/>
<text text-anchor="middle" x="1660.5" y="-87.8" font-family="Times,serif" font-size="9.00">Ⓜ ApproachTarget_2</text>
</g>
<!-- Drone2_Main&#45;&gt;ApproachTarget_2 -->
<g id="edge34" class="edge">
<title>Drone2_Main&#45;&gt;ApproachTarget_2</title>
<path fill="none" stroke="black" d="M1833.86,-146.41C1801.89,-136.19 1758.76,-122.41 1723.51,-111.14"/>
<polygon fill="black" stroke="black" points="1724.39,-107.75 1713.8,-108.04 1722.26,-114.41 1724.39,-107.75"/>
</g>
<!-- FindAttachmentPoint_2 -->
<g id="node37" class="node">
<title>FindAttachmentPoint_2</title>
<polygon fill="orange" stroke="black" points="1873,-108 1736,-108 1736,-72 1873,-72 1873,-108"/>
<text text-anchor="middle" x="1804.5" y="-87.8" font-family="Times,serif" font-size="9.00">Ⓜ FindAttachmentPoint_2</text>
</g>
<!-- Drone2_Main&#45;&gt;FindAttachmentPoint_2 -->
<g id="edge36" class="edge">
<title>Drone2_Main&#45;&gt;FindAttachmentPoint_2</title>
<path fill="none" stroke="black" d="M1860.96,-143.7C1851.7,-135.05 1840.34,-124.45 1830.24,-115.03"/>
<polygon fill="black" stroke="black" points="1832.52,-112.37 1822.83,-108.1 1827.75,-117.49 1832.52,-112.37"/>
</g>
<!-- ExposeManipulator_2 -->
<g id="node39" class="node">
<title>ExposeManipulator_2</title>
<polygon fill="orange" stroke="black" points="2020,-108 1891,-108 1891,-72 2020,-72 2020,-108"/>
<text text-anchor="middle" x="1955.5" y="-87.8" font-family="Times,serif" font-size="9.00">Ⓜ ExposeManipulator_2</text>
</g>
<!-- Drone2_Main&#45;&gt;ExposeManipulator_2 -->
<g id="edge38" class="edge">
<title>Drone2_Main&#45;&gt;ExposeManipulator_2</title>
<path fill="none" stroke="black" d="M1898.29,-143.7C1907.67,-135.05 1919.18,-124.45 1929.41,-115.03"/>
<polygon fill="black" stroke="black" points="1931.95,-117.45 1936.93,-108.1 1927.2,-112.3 1931.95,-117.45"/>
</g>
<!-- AlignManipulator_2 -->
<g id="node41" class="node">
<title>AlignManipulator_2</title>
<polygon fill="orange" stroke="black" points="2159,-108 2038,-108 2038,-72 2159,-72 2159,-108"/>
<text text-anchor="middle" x="2098.5" y="-87.8" font-family="Times,serif" font-size="9.00">Ⓜ AlignManipulator_2</text>
</g>
<!-- Drone2_Main&#45;&gt;AlignManipulator_2 -->
<g id="edge40" class="edge">
<title>Drone2_Main&#45;&gt;AlignManipulator_2</title>
<path fill="none" stroke="black" d="M1925.14,-146.41C1957.11,-136.19 2000.24,-122.41 2035.49,-111.14"/>
<polygon fill="black" stroke="black" points="2036.74,-114.41 2045.2,-108.04 2034.61,-107.75 2036.74,-114.41"/>
</g>
<!-- ApplyConstantPressure_2 -->
<g id="node43" class="node">
<title>ApplyConstantPressure_2</title>
<polygon fill="orange" stroke="black" points="2325.5,-108 2177.5,-108 2177.5,-72 2325.5,-72 2325.5,-108"/>
<text text-anchor="middle" x="2251.5" y="-87.8" font-family="Times,serif" font-size="9.00">Ⓜ ApplyConstantPressure_2</text>
</g>
<!-- Drone2_Main&#45;&gt;ApplyConstantPressure_2 -->
<g id="edge42" class="edge">
<title>Drone2_Main&#45;&gt;ApplyConstantPressure_2</title>
<path fill="none" stroke="black" d="M1925.44,-152.81C1980.32,-142.96 2075.18,-125.75 2167.26,-108.03"/>
<polygon fill="black" stroke="black" points="2168.15,-111.42 2177.31,-106.09 2166.83,-104.55 2168.15,-111.42"/>
</g>
<!-- AttachSensor_2 -->
<g id="node45" class="node">
<title>AttachSensor_2</title>
<polygon fill="orange" stroke="black" points="2445,-108 2344,-108 2344,-72 2445,-72 2445,-108"/>
<text text-anchor="middle" x="2394.5" y="-87.8" font-family="Times,serif" font-size="9.00">Ⓜ AttachSensor_2</text>
</g>
<!-- Drone2_Main&#45;&gt;AttachSensor_2 -->
<g id="edge44" class="edge">
<title>Drone2_Main&#45;&gt;AttachSensor_2</title>
<path fill="none" stroke="black" d="M1925.08,-158.12C2005.68,-152.49 2178.65,-138.07 2333.71,-107.96"/>
<polygon fill="black" stroke="black" points="2334.76,-111.32 2343.9,-105.95 2333.41,-104.45 2334.76,-111.32"/>
</g>
<!-- Land_2 -->
<g id="node47" class="node">
<title>Land_2</title>
<polygon fill="orange" stroke="black" points="2535.5,-108 2473.5,-108 2473.5,-72 2535.5,-72 2535.5,-108"/>
<text text-anchor="middle" x="2504.5" y="-87.8" font-family="Times,serif" font-size="9.00">Ⓜ Land_2</text>
</g>
<!-- Drone2_Main&#45;&gt;Land_2 -->
<g id="edge46" class="edge">
<title>Drone2_Main&#45;&gt;Land_2</title>
<path fill="none" stroke="black" d="M1925.05,-160.33C2022.86,-158.13 2259.82,-148.66 2453.5,-108 2456.74,-107.32 2460.07,-106.5 2463.39,-105.6"/>
<polygon fill="black" stroke="black" points="2464.66,-108.87 2473.25,-102.67 2462.67,-102.16 2464.66,-108.87"/>
</g>
<!-- Arm_2 -->
<g id="node30" class="node">
<title>Arm_2</title>
<ellipse fill="gray" stroke="black" cx="1336.5" cy="-18" rx="27.27" ry="18"/>
<text text-anchor="middle" x="1336.5" y="-15.8" font-family="Times,serif" font-size="9.00">Arm_2</text>
</g>
<!-- ArmDrone_2&#45;&gt;Arm_2 -->
<g id="edge29" class="edge">
<title>ArmDrone_2&#45;&gt;Arm_2</title>
<path fill="none" stroke="black" d="M1336.5,-71.7C1336.5,-63.98 1336.5,-54.71 1336.5,-46.11"/>
<polygon fill="black" stroke="black" points="1340,-46.1 1336.5,-36.1 1333,-46.1 1340,-46.1"/>
</g>
<!-- Offboard_2 -->
<g id="node32" class="node">
<title>Offboard_2</title>
<ellipse fill="gray" stroke="black" cx="1444.5" cy="-18" rx="39.02" ry="18"/>
<text text-anchor="middle" x="1444.5" y="-15.8" font-family="Times,serif" font-size="9.00">Offboard_2</text>
</g>
<!-- Go_offboard_2&#45;&gt;Offboard_2 -->
<g id="edge31" class="edge">
<title>Go_offboard_2&#45;&gt;Offboard_2</title>
<path fill="none" stroke="black" d="M1445.25,-71.7C1445.14,-63.98 1445.01,-54.71 1444.89,-46.11"/>
<polygon fill="black" stroke="black" points="1448.39,-46.05 1444.74,-36.1 1441.39,-46.15 1448.39,-46.05"/>
</g>
<!-- TakeOffCmd_2 -->
<g id="node34" class="node">
<title>TakeOffCmd_2</title>
<ellipse fill="gray" stroke="black" cx="1549.5" cy="-18" rx="47.84" ry="18"/>
<text text-anchor="middle" x="1549.5" y="-15.8" font-family="Times,serif" font-size="9.00">TakeOffCmd_2</text>
</g>
<!-- TakeOff_2&#45;&gt;TakeOffCmd_2 -->
<g id="edge33" class="edge">
<title>TakeOff_2&#45;&gt;TakeOffCmd_2</title>
<path fill="none" stroke="black" d="M1548.75,-71.7C1548.86,-63.98 1548.99,-54.71 1549.11,-46.11"/>
<polygon fill="black" stroke="black" points="1552.61,-46.15 1549.26,-36.1 1545.61,-46.05 1552.61,-46.15"/>
</g>
<!-- GoTo* -->
<g id="node36" class="node">
<title>GoTo*</title>
<ellipse fill="gray" stroke="black" cx="1660.5" cy="-18" rx="27" ry="18"/>
<text text-anchor="middle" x="1660.5" y="-15.8" font-family="Times,serif" font-size="9.00">GoTo*</text>
</g>
<!-- ApproachTarget_2&#45;&gt;GoTo* -->
<g id="edge35" class="edge">
<title>ApproachTarget_2&#45;&gt;GoTo*</title>
<path fill="none" stroke="black" d="M1660.5,-71.7C1660.5,-63.98 1660.5,-54.71 1660.5,-46.11"/>
<polygon fill="black" stroke="black" points="1664,-46.1 1660.5,-36.1 1657,-46.1 1664,-46.1"/>
</g>
<!-- FindAttachmentPoint* -->
<g id="node38" class="node">
<title>FindAttachmentPoint*</title>
<ellipse fill="gray" stroke="black" cx="1804.5" cy="-18" rx="68.91" ry="18"/>
<text text-anchor="middle" x="1804.5" y="-15.8" font-family="Times,serif" font-size="9.00">FindAttachmentPoint*</text>
</g>
<!-- FindAttachmentPoint_2&#45;&gt;FindAttachmentPoint* -->
<g id="edge37" class="edge">
<title>FindAttachmentPoint_2&#45;&gt;FindAttachmentPoint*</title>
<path fill="none" stroke="black" d="M1804.5,-71.7C1804.5,-63.98 1804.5,-54.71 1804.5,-46.11"/>
<polygon fill="black" stroke="black" points="1808,-46.1 1804.5,-36.1 1801,-46.1 1808,-46.1"/>
</g>
<!-- Expose Manipulator -->
<g id="node40" class="node">
<title>Expose Manipulator</title>
<ellipse fill="gray" stroke="black" cx="1955.5" cy="-18" rx="63.52" ry="18"/>
<text text-anchor="middle" x="1955.5" y="-15.8" font-family="Times,serif" font-size="9.00">Expose Manipulator</text>
</g>
<!-- ExposeManipulator_2&#45;&gt;Expose Manipulator -->
<g id="edge39" class="edge">
<title>ExposeManipulator_2&#45;&gt;Expose Manipulator</title>
<path fill="none" stroke="black" d="M1955.5,-71.7C1955.5,-63.98 1955.5,-54.71 1955.5,-46.11"/>
<polygon fill="black" stroke="black" points="1959,-46.1 1955.5,-36.1 1952,-46.1 1959,-46.1"/>
</g>
<!-- Align Manipulator -->
<g id="node42" class="node">
<title>Align Manipulator</title>
<ellipse fill="gray" stroke="black" cx="2098.5" cy="-18" rx="58.13" ry="18"/>
<text text-anchor="middle" x="2098.5" y="-15.8" font-family="Times,serif" font-size="9.00">Align Manipulator</text>
</g>
<!-- AlignManipulator_2&#45;&gt;Align Manipulator -->
<g id="edge41" class="edge">
<title>AlignManipulator_2&#45;&gt;Align Manipulator</title>
<path fill="none" stroke="black" d="M2098.5,-71.7C2098.5,-63.98 2098.5,-54.71 2098.5,-46.11"/>
<polygon fill="black" stroke="black" points="2102,-46.1 2098.5,-36.1 2095,-46.1 2102,-46.1"/>
</g>
<!-- Apply Constant Pressure -->
<g id="node44" class="node">
<title>Apply Constant Pressure</title>
<ellipse fill="gray" stroke="black" cx="2250.5" cy="-18" rx="75.77" ry="18"/>
<text text-anchor="middle" x="2250.5" y="-15.8" font-family="Times,serif" font-size="9.00">Apply Constant Pressure</text>
</g>
<!-- ApplyConstantPressure_2&#45;&gt;Apply Constant Pressure -->
<g id="edge43" class="edge">
<title>ApplyConstantPressure_2&#45;&gt;Apply Constant Pressure</title>
<path fill="none" stroke="black" d="M2251.25,-71.7C2251.14,-63.98 2251.01,-54.71 2250.89,-46.11"/>
<polygon fill="black" stroke="black" points="2254.39,-46.05 2250.74,-36.1 2247.39,-46.15 2254.39,-46.05"/>
</g>
<!-- Attach Sensor -->
<g id="node46" class="node">
<title>Attach Sensor</title>
<ellipse fill="gray" stroke="black" cx="2390.5" cy="-18" rx="46.53" ry="18"/>
<text text-anchor="middle" x="2390.5" y="-15.8" font-family="Times,serif" font-size="9.00">Attach Sensor</text>
</g>
<!-- AttachSensor_2&#45;&gt;Attach Sensor -->
<g id="edge45" class="edge">
<title>AttachSensor_2&#45;&gt;Attach Sensor</title>
<path fill="none" stroke="black" d="M2393.51,-71.7C2393.07,-63.98 2392.54,-54.71 2392.05,-46.11"/>
<polygon fill="black" stroke="black" points="2395.54,-45.89 2391.48,-36.1 2388.55,-46.29 2395.54,-45.89"/>
</g>
<!-- UpdateTarget* -->
<g id="node48" class="node">
<title>UpdateTarget*</title>
<ellipse fill="gray" stroke="black" cx="2504.5" cy="-18" rx="49.15" ry="18"/>
<text text-anchor="middle" x="2504.5" y="-15.8" font-family="Times,serif" font-size="9.00">UpdateTarget*</text>
</g>
<!-- Land_2&#45;&gt;UpdateTarget* -->
<g id="edge47" class="edge">
<title>Land_2&#45;&gt;UpdateTarget*</title>
<path fill="none" stroke="black" d="M2504.5,-71.7C2504.5,-63.98 2504.5,-54.71 2504.5,-46.11"/>
<polygon fill="black" stroke="black" points="2508,-46.1 2504.5,-36.1 2501,-46.1 2508,-46.1"/>
</g>
<!-- Land** -->
<g id="node49" class="node">
<title>Land**</title>
<ellipse fill="gray" stroke="black" cx="2599.5" cy="-18" rx="28.08" ry="18"/>
<text text-anchor="middle" x="2599.5" y="-15.8" font-family="Times,serif" font-size="9.00">Land**</text>
</g>
<!-- Land_2&#45;&gt;Land** -->
<g id="edge48" class="edge">
<title>Land_2&#45;&gt;Land**</title>
<path fill="none" stroke="black" d="M2527.98,-71.7C2541.72,-61.57 2559.11,-48.76 2573.29,-38.31"/>
<polygon fill="black" stroke="black" points="2575.68,-40.9 2581.65,-32.15 2571.52,-35.27 2575.68,-40.9"/>
</g>
<!-- Disarm** -->
<g id="node50" class="node">
<title>Disarm**</title>
<ellipse fill="gray" stroke="black" cx="2679.5" cy="-18" rx="34.13" ry="18"/>
<text text-anchor="middle" x="2679.5" y="-15.8" font-family="Times,serif" font-size="9.00">Disarm**</text>
</g>
<!-- Land_2&#45;&gt;Disarm** -->
<g id="edge49" class="edge">
<title>Land_2&#45;&gt;Disarm**</title>
<path fill="none" stroke="black" d="M2535.91,-75.55C2538.81,-74.34 2541.71,-73.14 2544.5,-72 2585.15,-55.41 2595.64,-52.07 2636.5,-36 2638.85,-35.07 2641.28,-34.12 2643.72,-33.16"/>
<polygon fill="black" stroke="black" points="2645.11,-36.37 2653.13,-29.44 2642.54,-29.86 2645.11,-36.37"/>
</g>
<!-- Land*** -->
<g id="node52" class="node">
<title>Land***</title>
<ellipse fill="gray" stroke="black" cx="2584.5" cy="-90" rx="30.7" ry="18"/>
<text text-anchor="middle" x="2584.5" y="-87.8" font-family="Times,serif" font-size="9.00">Land***</text>
</g>
<!-- Recovery_2&#45;&gt;Land*** -->
<g id="edge51" class="edge">
<title>Recovery_2&#45;&gt;Land***</title>
<path fill="none" stroke="black" d="M2584.5,-143.7C2584.5,-135.98 2584.5,-126.71 2584.5,-118.11"/>
<polygon fill="black" stroke="black" points="2588,-118.1 2584.5,-108.1 2581,-118.1 2588,-118.1"/>
</g>
<!-- Disarm*** -->
<g id="node53" class="node">
<title>Disarm***</title>
<ellipse fill="gray" stroke="black" cx="2669.5" cy="-90" rx="36.25" ry="18"/>
<text text-anchor="middle" x="2669.5" y="-87.8" font-family="Times,serif" font-size="9.00">Disarm***</text>
</g>
<!-- Recovery_2&#45;&gt;Disarm*** -->
<g id="edge52" class="edge">
<title>Recovery_2&#45;&gt;Disarm***</title>
<path fill="none" stroke="black" d="M2605.51,-143.7C2617.02,-134.22 2631.37,-122.4 2643.57,-112.36"/>
<polygon fill="black" stroke="black" points="2646.11,-114.8 2651.6,-105.74 2641.66,-109.39 2646.11,-114.8"/>
</g>
</g>
</svg>
