<?xml version="1.0" encoding="UTF-8" standalone="no"?>
<!DOCTYPE svg PUBLIC "-//W3C//DTD SVG 1.1//EN"
 "http://www.w3.org/Graphics/SVG/1.1/DTD/svg11.dtd">
<!-- Generated by graphviz version 2.43.0 (0)
 -->
<!-- Title: pastafarianism Pages: 1 -->
<svg width="1084pt" height="188pt"
 viewBox="0.00 0.00 1084.30 188.00" xmlns="http://www.w3.org/2000/svg" xmlns:xlink="http://www.w3.org/1999/xlink">
<g id="graph0" class="graph" transform="scale(1 1) rotate(0) translate(4 184)">
<title>pastafarianism</title>
<polygon fill="white" stroke="transparent" points="-4,4 -4,-184 1080.3,-184 1080.3,4 -4,4"/>
<!-- Phase 1 -->
<g id="node1" class="node">
<title>Phase 1</title>
<polygon fill="orange" stroke="black" points="407.65,-180 353.65,-180 353.65,-144 407.65,-144 407.65,-180"/>
<text text-anchor="middle" x="380.65" y="-159.8" font-family="Times,serif" font-size="9.00">Phase 1</text>
</g>
<!-- Clean Surface -->
<g id="node2" class="node">
<title>Clean Surface</title>
<polygon fill="orange" stroke="black" points="294.15,-108 213.15,-108 213.15,-72 294.15,-72 294.15,-108"/>
<text text-anchor="middle" x="253.65" y="-87.8" font-family="Times,serif" font-size="9.00">Clean Surface</text>
</g>
<!-- Phase 1&#45;&gt;Clean Surface -->
<g id="edge1" class="edge">
<title>Phase 1&#45;&gt;Clean Surface</title>
<path fill="none" stroke="black" d="M353.41,-145.98C336.04,-136.41 313.24,-123.84 293.81,-113.14"/>
<polygon fill="black" stroke="black" points="295.32,-109.97 284.87,-108.21 291.94,-116.1 295.32,-109.97"/>
</g>
<!-- Attach Sensor -->
<g id="node6" class="node">
<title>Attach Sensor</title>
<polygon fill="orange" stroke="black" points="702.15,-108 621.15,-108 621.15,-72 702.15,-72 702.15,-108"/>
<text text-anchor="middle" x="661.65" y="-87.8" font-family="Times,serif" font-size="9.00">Attach Sensor</text>
</g>
<!-- Phase 1&#45;&gt;Attach Sensor -->
<g id="edge5" class="edge">
<title>Phase 1&#45;&gt;Attach Sensor</title>
<path fill="none" stroke="black" d="M407.85,-154.22C454.72,-142.55 551.41,-118.46 610.99,-103.62"/>
<polygon fill="black" stroke="black" points="612.08,-106.96 620.94,-101.14 610.39,-100.16 612.08,-106.96"/>
</g>
<!-- Clean Surface* -->
<g id="node3" class="node">
<title>Clean Surface*</title>
<ellipse fill="gray" stroke="black" cx="49.65" cy="-18" rx="49.8" ry="18"/>
<text text-anchor="middle" x="49.65" y="-15.8" font-family="Times,serif" font-size="9.00">Clean Surface*</text>
</g>
<!-- Clean Surface&#45;&gt;Clean Surface* -->
<g id="edge2" class="edge">
<title>Clean Surface&#45;&gt;Clean Surface*</title>
<path fill="none" stroke="black" d="M212.86,-75C178.53,-63.22 129.52,-46.41 94.18,-34.28"/>
<polygon fill="black" stroke="black" points="95.19,-30.93 84.6,-30.99 92.92,-37.55 95.19,-30.93"/>
</g>
<!-- Spray Adhesive -->
<g id="node4" class="node">
<title>Spray Adhesive</title>
<ellipse fill="gray" stroke="black" cx="168.65" cy="-18" rx="51.27" ry="18"/>
<text text-anchor="middle" x="168.65" y="-15.8" font-family="Times,serif" font-size="9.00">Spray Adhesive</text>
</g>
<!-- Clean Surface&#45;&gt;Spray Adhesive -->
<g id="edge3" class="edge">
<title>Clean Surface&#45;&gt;Spray Adhesive</title>
<path fill="none" stroke="black" d="M232.64,-71.7C221.54,-62.55 207.78,-51.22 195.86,-41.41"/>
<polygon fill="black" stroke="black" points="197.91,-38.56 187.97,-34.91 193.46,-43.97 197.91,-38.56"/>
</g>
<!-- Send Sensor Attachment Location -->
<g id="node5" class="node">
<title>Send Sensor Attachment Location</title>
<ellipse fill="gray" stroke="black" cx="337.65" cy="-18" rx="99.76" ry="18"/>
<text text-anchor="middle" x="337.65" y="-15.8" font-family="Times,serif" font-size="9.00">Send Sensor Attachment Location</text>
</g>
<!-- Clean Surface&#45;&gt;Send Sensor Attachment Location -->
<g id="edge4" class="edge">
<title>Clean Surface&#45;&gt;Send Sensor Attachment Location</title>
<path fill="none" stroke="black" d="M274.42,-71.7C284.97,-62.9 297.96,-52.08 309.41,-42.54"/>
<polygon fill="black" stroke="black" points="311.98,-44.95 317.42,-35.86 307.49,-39.58 311.98,-44.95"/>
</g>
<!-- GoTo -->
<g id="node7" class="node">
<title>GoTo</title>
<ellipse fill="gray" stroke="black" cx="482.65" cy="-18" rx="27" ry="18"/>
<text text-anchor="middle" x="482.65" y="-15.8" font-family="Times,serif" font-size="9.00">GoTo</text>
</g>
<!-- Attach Sensor&#45;&gt;GoTo -->
<g id="edge6" class="edge">
<title>Attach Sensor&#45;&gt;GoTo</title>
<path fill="none" stroke="black" d="M620.92,-74.96C592.1,-64.77 552.7,-50.32 518.65,-36 516.84,-35.24 514.98,-34.43 513.11,-33.61"/>
<polygon fill="black" stroke="black" points="514.39,-30.34 503.84,-29.37 511.48,-36.71 514.39,-30.34"/>
</g>
<!-- Expose Manipulator -->
<g id="node8" class="node">
<title>Expose Manipulator</title>
<ellipse fill="gray" stroke="black" cx="591.65" cy="-18" rx="63.52" ry="18"/>
<text text-anchor="middle" x="591.65" y="-15.8" font-family="Times,serif" font-size="9.00">Expose Manipulator</text>
</g>
<!-- Attach Sensor&#45;&gt;Expose Manipulator -->
<g id="edge7" class="edge">
<title>Attach Sensor&#45;&gt;Expose Manipulator</title>
<path fill="none" stroke="black" d="M644.35,-71.7C635.66,-63.01 625,-52.34 615.54,-42.89"/>
<polygon fill="black" stroke="black" points="617.82,-40.22 608.27,-35.62 612.87,-45.17 617.82,-40.22"/>
</g>
<!-- Align Manipulator -->
<g id="node9" class="node">
<title>Align Manipulator</title>
<ellipse fill="gray" stroke="black" cx="731.65" cy="-18" rx="58.13" ry="18"/>
<text text-anchor="middle" x="731.65" y="-15.8" font-family="Times,serif" font-size="9.00">Align Manipulator</text>
</g>
<!-- Attach Sensor&#45;&gt;Align Manipulator -->
<g id="edge8" class="edge">
<title>Attach Sensor&#45;&gt;Align Manipulator</title>
<path fill="none" stroke="black" d="M678.96,-71.7C687.64,-63.01 698.31,-52.34 707.77,-42.89"/>
<polygon fill="black" stroke="black" points="710.43,-45.17 715.03,-35.62 705.48,-40.22 710.43,-45.17"/>
</g>
<!-- Apply Constant Pressure -->
<g id="node10" class="node">
<title>Apply Constant Pressure</title>
<ellipse fill="gray" stroke="black" cx="883.65" cy="-18" rx="75.77" ry="18"/>
<text text-anchor="middle" x="883.65" y="-15.8" font-family="Times,serif" font-size="9.00">Apply Constant Pressure</text>
</g>
<!-- Attach Sensor&#45;&gt;Apply Constant Pressure -->
<g id="edge9" class="edge">
<title>Attach Sensor&#45;&gt;Apply Constant Pressure</title>
<path fill="none" stroke="black" d="M702.37,-76.16C738.26,-64.84 790.8,-48.28 830.09,-35.89"/>
<polygon fill="black" stroke="black" points="831.29,-39.18 839.77,-32.84 829.18,-32.51 831.29,-39.18"/>
</g>
<!-- Attach Sensor* -->
<g id="node11" class="node">
<title>Attach Sensor*</title>
<ellipse fill="gray" stroke="black" cx="1026.65" cy="-18" rx="49.8" ry="18"/>
<text text-anchor="middle" x="1026.65" y="-15.8" font-family="Times,serif" font-size="9.00">Attach Sensor*</text>
</g>
<!-- Attach Sensor&#45;&gt;Attach Sensor* -->
<g id="edge10" class="edge">
<title>Attach Sensor&#45;&gt;Attach Sensor*</title>
<path fill="none" stroke="black" d="M702.18,-83.51C761.2,-75.17 874.08,-57.95 968.65,-36 972.51,-35.1 976.49,-34.1 980.47,-33.05"/>
<polygon fill="black" stroke="black" points="981.6,-36.37 990.31,-30.34 979.74,-29.62 981.6,-36.37"/>
</g>
</g>
</svg>
