<?xml version="1.0" encoding="UTF-8" standalone="no"?>
<!DOCTYPE svg PUBLIC "-//W3C//DTD SVG 1.1//EN"
 "http://www.w3.org/Graphics/SVG/1.1/DTD/svg11.dtd">
<!-- Generated by graphviz version 2.43.0 (0)
 -->
<!-- Title: pastafarianism Pages: 1 -->
<svg width="2167pt" height="424pt"
 viewBox="0.00 0.00 2167.49 424.00" xmlns="http://www.w3.org/2000/svg" xmlns:xlink="http://www.w3.org/1999/xlink">
<g id="graph0" class="graph" transform="scale(1 1) rotate(0) translate(4 420)">
<title>pastafarianism</title>
<polygon fill="white" stroke="transparent" points="-4,4 -4,-420 2163.49,-420 2163.49,4 -4,4"/>
<!-- Phase1 -->
<g id="node1" class="node">
<title>Phase1</title>
<polygon fill="gold" stroke="black" points="1229.6,-416 1097.76,-416 1063.84,-360 1195.69,-360 1229.6,-416"/>
<text text-anchor="middle" x="1146.72" y="-390.8" font-family="Times,serif" font-size="9.00">⚡ Phase1</text>
<text text-anchor="middle" x="1146.72" y="-380.8" font-family="Times,serif" font-size="9.00">SuccessOnAll</text>
</g>
<!-- Drone1_WithRecovery -->
<g id="node2" class="node">
<title>Drone1_WithRecovery</title>
<polygon fill="cyan" stroke="black" points="908.2,-298.54 908.2,-313.46 859.89,-324 791.56,-324 743.25,-313.46 743.25,-298.54 791.56,-288 859.89,-288 908.2,-298.54"/>
<text text-anchor="middle" x="825.72" y="-303.8" font-family="Times,serif" font-size="9.00">Ⓜ Drone1_WithRecovery</text>
</g>
<!-- Phase1&#45;&gt;Drone1_WithRecovery -->
<g id="edge1" class="edge">
<title>Phase1&#45;&gt;Drone1_WithRecovery</title>
<path fill="none" stroke="black" d="M1068.2,-367.43C1012.86,-353.64 939.76,-335.42 888.34,-322.61"/>
<polygon fill="black" stroke="black" points="888.91,-319.14 878.36,-320.12 887.21,-325.93 888.91,-319.14"/>
</g>
<!-- Drone2_WithRecovery -->
<g id="node22" class="node">
<title>Drone2_WithRecovery</title>
<polygon fill="cyan" stroke="black" points="1481.2,-298.54 1481.2,-313.46 1432.89,-324 1364.56,-324 1316.25,-313.46 1316.25,-298.54 1364.56,-288 1432.89,-288 1481.2,-298.54"/>
<text text-anchor="middle" x="1398.72" y="-303.8" font-family="Times,serif" font-size="9.00">Ⓜ Drone2_WithRecovery</text>
</g>
<!-- Phase1&#45;&gt;Drone2_WithRecovery -->
<g id="edge21" class="edge">
<title>Phase1&#45;&gt;Drone2_WithRecovery</title>
<path fill="none" stroke="black" d="M1201.71,-369.54C1243.63,-356.23 1301.12,-337.98 1343.18,-324.63"/>
<polygon fill="black" stroke="black" points="1344.24,-327.97 1352.71,-321.61 1342.12,-321.3 1344.24,-327.97"/>
</g>
<!-- Drone1_Main -->
<g id="node3" class="node">
<title>Drone1_Main</title>
<polygon fill="orange" stroke="black" points="633.22,-252 542.22,-252 542.22,-216 633.22,-216 633.22,-252"/>
<text text-anchor="middle" x="587.72" y="-231.8" font-family="Times,serif" font-size="9.00">Ⓜ Drone1_Main</text>
</g>
<!-- Drone1_WithRecovery&#45;&gt;Drone1_Main -->
<g id="edge2" class="edge">
<title>Drone1_WithRecovery&#45;&gt;Drone1_Main</title>
<path fill="none" stroke="black" d="M777.85,-290.92C738.97,-279.48 684.1,-263.35 643.29,-251.34"/>
<polygon fill="black" stroke="black" points="644.09,-247.93 633.5,-248.46 642.11,-254.64 644.09,-247.93"/>
</g>
<!-- Recovery_1 -->
<g id="node19" class="node">
<title>Recovery_1</title>
<polygon fill="orange" stroke="black" points="866.72,-252 784.72,-252 784.72,-216 866.72,-216 866.72,-252"/>
<text text-anchor="middle" x="825.72" y="-231.8" font-family="Times,serif" font-size="9.00">Ⓜ Recovery_1</text>
</g>
<!-- Drone1_WithRecovery&#45;&gt;Recovery_1 -->
<g id="edge18" class="edge">
<title>Drone1_WithRecovery&#45;&gt;Recovery_1</title>
<path fill="none" stroke="black" d="M825.72,-287.7C825.72,-279.98 825.72,-270.71 825.72,-262.11"/>
<polygon fill="black" stroke="black" points="829.22,-262.1 825.72,-252.1 822.22,-262.1 829.22,-262.1"/>
</g>
<!-- TakeOff_1 -->
<g id="node4" class="node">
<title>TakeOff_1</title>
<polygon fill="orange" stroke="black" points="236.72,-180 162.72,-180 162.72,-144 236.72,-144 236.72,-180"/>
<text text-anchor="middle" x="199.72" y="-159.8" font-family="Times,serif" font-size="9.00">Ⓜ TakeOff_1</text>
</g>
<!-- Drone1_Main&#45;&gt;TakeOff_1 -->
<g id="edge3" class="edge">
<title>Drone1_Main&#45;&gt;TakeOff_1</title>
<path fill="none" stroke="black" d="M542.07,-224.76C467.94,-211.39 322.1,-185.08 246.96,-171.52"/>
<polygon fill="black" stroke="black" points="247.3,-168.03 236.84,-169.7 246.06,-174.92 247.3,-168.03"/>
</g>
<!-- AcquireTarget_1 -->
<g id="node12" class="node">
<title>AcquireTarget_1</title>
<polygon fill="orange" stroke="black" points="516.72,-180 410.72,-180 410.72,-144 516.72,-144 516.72,-180"/>
<text text-anchor="middle" x="463.72" y="-159.8" font-family="Times,serif" font-size="9.00">Ⓜ AcquireTarget_1</text>
</g>
<!-- Drone1_Main&#45;&gt;AcquireTarget_1 -->
<g id="edge11" class="edge">
<title>Drone1_Main&#45;&gt;AcquireTarget_1</title>
<path fill="none" stroke="black" d="M557.39,-215.88C541.03,-206.64 520.64,-195.13 503.07,-185.21"/>
<polygon fill="black" stroke="black" points="504.6,-182.06 494.17,-180.19 501.16,-188.15 504.6,-182.06"/>
</g>
<!-- CleanSurface_1 -->
<g id="node15" class="node">
<title>CleanSurface_1</title>
<polygon fill="orange" stroke="black" points="703.22,-180 602.22,-180 602.22,-144 703.22,-144 703.22,-180"/>
<text text-anchor="middle" x="652.72" y="-159.8" font-family="Times,serif" font-size="9.00">Ⓜ CleanSurface_1</text>
</g>
<!-- Drone1_Main&#45;&gt;CleanSurface_1 -->
<g id="edge14" class="edge">
<title>Drone1_Main&#45;&gt;CleanSurface_1</title>
<path fill="none" stroke="black" d="M603.79,-215.7C611.66,-207.22 621.28,-196.86 629.9,-187.58"/>
<polygon fill="black" stroke="black" points="632.6,-189.81 636.84,-180.1 627.47,-185.05 632.6,-189.81"/>
</g>
<!-- Arm_1 -->
<g id="node5" class="node">
<title>Arm_1</title>
<ellipse fill="gray" stroke="black" cx="43.72" cy="-90" rx="27.27" ry="18"/>
<text text-anchor="middle" x="43.72" y="-87.8" font-family="Times,serif" font-size="9.00">Arm_1</text>
</g>
<!-- TakeOff_1&#45;&gt;Arm_1 -->
<g id="edge4" class="edge">
<title>TakeOff_1&#45;&gt;Arm_1</title>
<path fill="none" stroke="black" d="M162.59,-144.89C138.82,-134.5 107.38,-120.63 79.72,-108 78.12,-107.27 76.49,-106.52 74.84,-105.75"/>
<polygon fill="black" stroke="black" points="75.93,-102.4 65.38,-101.34 72.96,-108.74 75.93,-102.4"/>
</g>
<!-- OffboardSequence -->
<g id="node6" class="node">
<title>OffboardSequence</title>
<polygon fill="orange" stroke="black" points="192.22,-108 89.22,-108 89.22,-72 192.22,-72 192.22,-108"/>
<text text-anchor="middle" x="140.72" y="-87.8" font-family="Times,serif" font-size="9.00">OffboardSequence</text>
</g>
<!-- TakeOff_1&#45;&gt;OffboardSequence -->
<g id="edge5" class="edge">
<title>TakeOff_1&#45;&gt;OffboardSequence</title>
<path fill="none" stroke="black" d="M185.14,-143.7C178.07,-135.3 169.44,-125.07 161.68,-115.86"/>
<polygon fill="black" stroke="black" points="164.26,-113.49 155.14,-108.1 158.91,-118.01 164.26,-113.49"/>
</g>
<!-- TakeOffSequence -->
<g id="node9" class="node">
<title>TakeOffSequence</title>
<polygon fill="orange" stroke="black" points="307.22,-108 210.22,-108 210.22,-72 307.22,-72 307.22,-108"/>
<text text-anchor="middle" x="258.72" y="-87.8" font-family="Times,serif" font-size="9.00">TakeOffSequence</text>
</g>
<!-- TakeOff_1&#45;&gt;TakeOffSequence -->
<g id="edge8" class="edge">
<title>TakeOff_1&#45;&gt;TakeOffSequence</title>
<path fill="none" stroke="black" d="M214.31,-143.7C221.38,-135.3 230.01,-125.07 237.77,-115.86"/>
<polygon fill="black" stroke="black" points="240.54,-118.01 244.31,-108.1 235.19,-113.49 240.54,-118.01"/>
</g>
<!-- VerifyArm_1 -->
<g id="node7" class="node">
<title>VerifyArm_1</title>
<ellipse fill="gray" stroke="black" cx="42.72" cy="-18" rx="42.95" ry="18"/>
<text text-anchor="middle" x="42.72" y="-15.8" font-family="Times,serif" font-size="9.00">VerifyArm_1</text>
</g>
<!-- OffboardSequence&#45;&gt;VerifyArm_1 -->
<g id="edge6" class="edge">
<title>OffboardSequence&#45;&gt;VerifyArm_1</title>
<path fill="none" stroke="black" d="M116.75,-71.88C103.24,-62.22 86.25,-50.09 71.96,-39.88"/>
<polygon fill="black" stroke="black" points="73.63,-36.78 63.46,-33.81 69.57,-42.47 73.63,-36.78"/>
</g>
<!-- Offboard_1 -->
<g id="node8" class="node">
<title>Offboard_1</title>
<ellipse fill="gray" stroke="black" cx="142.72" cy="-18" rx="39.02" ry="18"/>
<text text-anchor="middle" x="142.72" y="-15.8" font-family="Times,serif" font-size="9.00">Offboard_1</text>
</g>
<!-- OffboardSequence&#45;&gt;Offboard_1 -->
<g id="edge7" class="edge">
<title>OffboardSequence&#45;&gt;Offboard_1</title>
<path fill="none" stroke="black" d="M141.22,-71.7C141.44,-63.98 141.7,-54.71 141.95,-46.11"/>
<polygon fill="black" stroke="black" points="145.45,-46.2 142.24,-36.1 138.45,-46 145.45,-46.2"/>
</g>
<!-- VerifyOffboard_1 -->
<g id="node10" class="node">
<title>VerifyOffboard_1</title>
<ellipse fill="gray" stroke="black" cx="257.72" cy="-18" rx="54.7" ry="18"/>
<text text-anchor="middle" x="257.72" y="-15.8" font-family="Times,serif" font-size="9.00">VerifyOffboard_1</text>
</g>
<!-- TakeOffSequence&#45;&gt;VerifyOffboard_1 -->
<g id="edge9" class="edge">
<title>TakeOffSequence&#45;&gt;VerifyOffboard_1</title>
<path fill="none" stroke="black" d="M258.48,-71.7C258.37,-63.98 258.23,-54.71 258.11,-46.11"/>
<polygon fill="black" stroke="black" points="261.61,-46.05 257.97,-36.1 254.61,-46.15 261.61,-46.05"/>
</g>
<!-- TakeOffCmd_1 -->
<g id="node11" class="node">
<title>TakeOffCmd_1</title>
<ellipse fill="gray" stroke="black" cx="378.72" cy="-18" rx="47.84" ry="18"/>
<text text-anchor="middle" x="378.72" y="-15.8" font-family="Times,serif" font-size="9.00">TakeOffCmd_1</text>
</g>
<!-- TakeOffSequence&#45;&gt;TakeOffCmd_1 -->
<g id="edge10" class="edge">
<title>TakeOffSequence&#45;&gt;TakeOffCmd_1</title>
<path fill="none" stroke="black" d="M288.08,-71.88C305.21,-61.88 326.91,-49.23 344.78,-38.8"/>
<polygon fill="black" stroke="black" points="346.85,-41.64 353.73,-33.58 343.33,-35.6 346.85,-41.64"/>
</g>
<!-- GoTo -->
<g id="node13" class="node">
<title>GoTo</title>
<ellipse fill="gray" stroke="black" cx="352.72" cy="-90" rx="27" ry="18"/>
<text text-anchor="middle" x="352.72" y="-87.8" font-family="Times,serif" font-size="9.00">GoTo</text>
</g>
<!-- AcquireTarget_1&#45;&gt;GoTo -->
<g id="edge12" class="edge">
<title>AcquireTarget_1&#45;&gt;GoTo</title>
<path fill="none" stroke="black" d="M436.57,-143.88C419.41,-133.05 397.3,-119.11 380.1,-108.26"/>
<polygon fill="black" stroke="black" points="381.93,-105.28 371.6,-102.9 378.19,-111.2 381.93,-105.28"/>
</g>
<!-- FindAttachmentPoint -->
<g id="node14" class="node">
<title>FindAttachmentPoint</title>
<ellipse fill="gray" stroke="black" cx="463.72" cy="-90" rx="66.29" ry="18"/>
<text text-anchor="middle" x="463.72" y="-87.8" font-family="Times,serif" font-size="9.00">FindAttachmentPoint</text>
</g>
<!-- AcquireTarget_1&#45;&gt;FindAttachmentPoint -->
<g id="edge13" class="edge">
<title>AcquireTarget_1&#45;&gt;FindAttachmentPoint</title>
<path fill="none" stroke="black" d="M463.72,-143.7C463.72,-135.98 463.72,-126.71 463.72,-118.11"/>
<polygon fill="black" stroke="black" points="467.22,-118.1 463.72,-108.1 460.22,-118.1 467.22,-118.1"/>
</g>
<!-- Clean Surface -->
<g id="node16" class="node">
<title>Clean Surface</title>
<ellipse fill="gray" stroke="black" cx="594.72" cy="-90" rx="46.53" ry="18"/>
<text text-anchor="middle" x="594.72" y="-87.8" font-family="Times,serif" font-size="9.00">Clean Surface</text>
</g>
<!-- CleanSurface_1&#45;&gt;Clean Surface -->
<g id="edge15" class="edge">
<title>CleanSurface_1&#45;&gt;Clean Surface</title>
<path fill="none" stroke="black" d="M638.39,-143.7C631.33,-135.18 622.7,-124.76 614.98,-115.45"/>
<polygon fill="black" stroke="black" points="617.57,-113.09 608.5,-107.62 612.18,-117.56 617.57,-113.09"/>
</g>
<!-- Spray Adhesive -->
<g id="node17" class="node">
<title>Spray Adhesive</title>
<ellipse fill="gray" stroke="black" cx="710.72" cy="-90" rx="51.27" ry="18"/>
<text text-anchor="middle" x="710.72" y="-87.8" font-family="Times,serif" font-size="9.00">Spray Adhesive</text>
</g>
<!-- CleanSurface_1&#45;&gt;Spray Adhesive -->
<g id="edge16" class="edge">
<title>CleanSurface_1&#45;&gt;Spray Adhesive</title>
<path fill="none" stroke="black" d="M667.06,-143.7C674.12,-135.18 682.75,-124.76 690.47,-115.45"/>
<polygon fill="black" stroke="black" points="693.27,-117.56 696.95,-107.62 687.88,-113.09 693.27,-117.56"/>
</g>
<!-- Send Sensor Attachment Location -->
<g id="node18" class="node">
<title>Send Sensor Attachment Location</title>
<ellipse fill="gray" stroke="black" cx="879.72" cy="-90" rx="99.76" ry="18"/>
<text text-anchor="middle" x="879.72" y="-87.8" font-family="Times,serif" font-size="9.00">Send Sensor Attachment Location</text>
</g>
<!-- CleanSurface_1&#45;&gt;Send Sensor Attachment Location -->
<g id="edge17" class="edge">
<title>CleanSurface_1&#45;&gt;Send Sensor Attachment Location</title>
<path fill="none" stroke="black" d="M703.38,-145.38C738.38,-134.59 785.01,-120.21 821.54,-108.94"/>
<polygon fill="black" stroke="black" points="823.03,-112.15 831.55,-105.86 820.96,-105.46 823.03,-112.15"/>
</g>
<!-- Land -->
<g id="node20" class="node">
<title>Land</title>
<ellipse fill="gray" stroke="black" cx="788.72" cy="-162" rx="27" ry="18"/>
<text text-anchor="middle" x="788.72" y="-159.8" font-family="Times,serif" font-size="9.00">Land</text>
</g>
<!-- Recovery_1&#45;&gt;Land -->
<g id="edge19" class="edge">
<title>Recovery_1&#45;&gt;Land</title>
<path fill="none" stroke="black" d="M816.58,-215.7C812.19,-207.4 806.86,-197.31 802.04,-188.19"/>
<polygon fill="black" stroke="black" points="805.02,-186.35 797.26,-179.14 798.84,-189.62 805.02,-186.35"/>
</g>
<!-- Disarm -->
<g id="node21" class="node">
<title>Disarm</title>
<ellipse fill="gray" stroke="black" cx="862.72" cy="-162" rx="28.74" ry="18"/>
<text text-anchor="middle" x="862.72" y="-159.8" font-family="Times,serif" font-size="9.00">Disarm</text>
</g>
<!-- Recovery_1&#45;&gt;Disarm -->
<g id="edge20" class="edge">
<title>Recovery_1&#45;&gt;Disarm</title>
<path fill="none" stroke="black" d="M834.87,-215.7C839.19,-207.52 844.43,-197.6 849.2,-188.58"/>
<polygon fill="black" stroke="black" points="852.36,-190.1 853.94,-179.62 846.17,-186.83 852.36,-190.1"/>
</g>
<!-- Drone2_Main -->
<g id="node23" class="node">
<title>Drone2_Main</title>
<polygon fill="orange" stroke="black" points="1444.22,-252 1353.22,-252 1353.22,-216 1444.22,-216 1444.22,-252"/>
<text text-anchor="middle" x="1398.72" y="-231.8" font-family="Times,serif" font-size="9.00">Ⓜ Drone2_Main</text>
</g>
<!-- Drone2_WithRecovery&#45;&gt;Drone2_Main -->
<g id="edge22" class="edge">
<title>Drone2_WithRecovery&#45;&gt;Drone2_Main</title>
<path fill="none" stroke="black" d="M1398.72,-287.7C1398.72,-279.98 1398.72,-270.71 1398.72,-262.11"/>
<polygon fill="black" stroke="black" points="1402.22,-262.1 1398.72,-252.1 1395.22,-262.1 1402.22,-262.1"/>
</g>
<!-- Recovery_2 -->
<g id="node41" class="node">
<title>Recovery_2</title>
<polygon fill="orange" stroke="black" points="1817.72,-252 1735.72,-252 1735.72,-216 1817.72,-216 1817.72,-252"/>
<text text-anchor="middle" x="1776.72" y="-231.8" font-family="Times,serif" font-size="9.00">Ⓜ Recovery_2</text>
</g>
<!-- Drone2_WithRecovery&#45;&gt;Recovery_2 -->
<g id="edge40" class="edge">
<title>Drone2_WithRecovery&#45;&gt;Recovery_2</title>
<path fill="none" stroke="black" d="M1459.46,-293.75C1533.2,-280.1 1656.27,-257.31 1725.46,-244.49"/>
<polygon fill="black" stroke="black" points="1726.48,-247.86 1735.68,-242.6 1725.21,-240.98 1726.48,-247.86"/>
</g>
<!-- TakeOff_2 -->
<g id="node24" class="node">
<title>TakeOff_2</title>
<polygon fill="orange" stroke="black" points="1213.72,-180 1139.72,-180 1139.72,-144 1213.72,-144 1213.72,-180"/>
<text text-anchor="middle" x="1176.72" y="-159.8" font-family="Times,serif" font-size="9.00">Ⓜ TakeOff_2</text>
</g>
<!-- Drone2_Main&#45;&gt;TakeOff_2 -->
<g id="edge23" class="edge">
<title>Drone2_Main&#45;&gt;TakeOff_2</title>
<path fill="none" stroke="black" d="M1352.99,-218.58C1315.24,-206.68 1261.87,-189.85 1223.76,-177.83"/>
<polygon fill="black" stroke="black" points="1224.52,-174.4 1213.93,-174.73 1222.42,-181.08 1224.52,-174.4"/>
</g>
<!-- ApproachTarget_2 -->
<g id="node32" class="node">
<title>ApproachTarget_2</title>
<polygon fill="orange" stroke="black" points="1455.72,-180 1341.72,-180 1341.72,-144 1455.72,-144 1455.72,-180"/>
<text text-anchor="middle" x="1398.72" y="-159.8" font-family="Times,serif" font-size="9.00">Ⓜ ApproachTarget_2</text>
</g>
<!-- Drone2_Main&#45;&gt;ApproachTarget_2 -->
<g id="edge31" class="edge">
<title>Drone2_Main&#45;&gt;ApproachTarget_2</title>
<path fill="none" stroke="black" d="M1398.72,-215.7C1398.72,-207.98 1398.72,-198.71 1398.72,-190.11"/>
<polygon fill="black" stroke="black" points="1402.22,-190.1 1398.72,-180.1 1395.22,-190.1 1402.22,-190.1"/>
</g>
<!-- AttachSensor_2 -->
<g id="node35" class="node">
<title>AttachSensor_2</title>
<polygon fill="orange" stroke="black" points="1731.22,-180 1630.22,-180 1630.22,-144 1731.22,-144 1731.22,-180"/>
<text text-anchor="middle" x="1680.72" y="-159.8" font-family="Times,serif" font-size="9.00">Ⓜ AttachSensor_2</text>
</g>
<!-- Drone2_Main&#45;&gt;AttachSensor_2 -->
<g id="edge34" class="edge">
<title>Drone2_Main&#45;&gt;AttachSensor_2</title>
<path fill="none" stroke="black" d="M1444.35,-221.68C1492.09,-209.82 1567.29,-191.16 1620.02,-178.07"/>
<polygon fill="black" stroke="black" points="1621.06,-181.42 1629.92,-175.61 1619.37,-174.62 1621.06,-181.42"/>
</g>
<!-- Arm_2 -->
<g id="node25" class="node">
<title>Arm_2</title>
<ellipse fill="gray" stroke="black" cx="1024.72" cy="-90" rx="27.27" ry="18"/>
<text text-anchor="middle" x="1024.72" y="-87.8" font-family="Times,serif" font-size="9.00">Arm_2</text>
</g>
<!-- TakeOff_2&#45;&gt;Arm_2 -->
<g id="edge24" class="edge">
<title>TakeOff_2&#45;&gt;Arm_2</title>
<path fill="none" stroke="black" d="M1139.58,-144.17C1116.79,-133.81 1087.03,-120.22 1060.72,-108 1059.13,-107.26 1057.5,-106.5 1055.85,-105.73"/>
<polygon fill="black" stroke="black" points="1056.94,-102.38 1046.41,-101.29 1053.97,-108.71 1056.94,-102.38"/>
</g>
<!-- OffboardSequence* -->
<g id="node26" class="node">
<title>OffboardSequence*</title>
<polygon fill="orange" stroke="black" points="1177.22,-108 1070.22,-108 1070.22,-72 1177.22,-72 1177.22,-108"/>
<text text-anchor="middle" x="1123.72" y="-87.8" font-family="Times,serif" font-size="9.00">OffboardSequence*</text>
</g>
<!-- TakeOff_2&#45;&gt;OffboardSequence* -->
<g id="edge25" class="edge">
<title>TakeOff_2&#45;&gt;OffboardSequence*</title>
<path fill="none" stroke="black" d="M1163.62,-143.7C1157.33,-135.39 1149.68,-125.28 1142.76,-116.14"/>
<polygon fill="black" stroke="black" points="1145.5,-113.96 1136.67,-108.1 1139.92,-118.19 1145.5,-113.96"/>
</g>
<!-- TakeOffSequence* -->
<g id="node29" class="node">
<title>TakeOffSequence*</title>
<polygon fill="orange" stroke="black" points="1296.22,-108 1195.22,-108 1195.22,-72 1296.22,-72 1296.22,-108"/>
<text text-anchor="middle" x="1245.72" y="-87.8" font-family="Times,serif" font-size="9.00">TakeOffSequence*</text>
</g>
<!-- TakeOff_2&#45;&gt;TakeOffSequence* -->
<g id="edge28" class="edge">
<title>TakeOff_2&#45;&gt;TakeOffSequence*</title>
<path fill="none" stroke="black" d="M1193.78,-143.7C1202.22,-135.14 1212.55,-124.66 1221.77,-115.3"/>
<polygon fill="black" stroke="black" points="1224.34,-117.68 1228.86,-108.1 1219.35,-112.77 1224.34,-117.68"/>
</g>
<!-- VerifyArm_2 -->
<g id="node27" class="node">
<title>VerifyArm_2</title>
<ellipse fill="gray" stroke="black" cx="1025.72" cy="-18" rx="42.95" ry="18"/>
<text text-anchor="middle" x="1025.72" y="-15.8" font-family="Times,serif" font-size="9.00">VerifyArm_2</text>
</g>
<!-- OffboardSequence*&#45;&gt;VerifyArm_2 -->
<g id="edge26" class="edge">
<title>OffboardSequence*&#45;&gt;VerifyArm_2</title>
<path fill="none" stroke="black" d="M1099.75,-71.88C1086.24,-62.22 1069.25,-50.09 1054.96,-39.88"/>
<polygon fill="black" stroke="black" points="1056.63,-36.78 1046.46,-33.81 1052.57,-42.47 1056.63,-36.78"/>
</g>
<!-- Offboard_2 -->
<g id="node28" class="node">
<title>Offboard_2</title>
<ellipse fill="gray" stroke="black" cx="1125.72" cy="-18" rx="39.02" ry="18"/>
<text text-anchor="middle" x="1125.72" y="-15.8" font-family="Times,serif" font-size="9.00">Offboard_2</text>
</g>
<!-- OffboardSequence*&#45;&gt;Offboard_2 -->
<g id="edge27" class="edge">
<title>OffboardSequence*&#45;&gt;Offboard_2</title>
<path fill="none" stroke="black" d="M1124.22,-71.7C1124.44,-63.98 1124.7,-54.71 1124.95,-46.11"/>
<polygon fill="black" stroke="black" points="1128.45,-46.2 1125.24,-36.1 1121.45,-46 1128.45,-46.2"/>
</g>
<!-- VerifyOffboard_2 -->
<g id="node30" class="node">
<title>VerifyOffboard_2</title>
<ellipse fill="gray" stroke="black" cx="1242.72" cy="-18" rx="54.7" ry="18"/>
<text text-anchor="middle" x="1242.72" y="-15.8" font-family="Times,serif" font-size="9.00">VerifyOffboard_2</text>
</g>
<!-- TakeOffSequence*&#45;&gt;VerifyOffboard_2 -->
<g id="edge29" class="edge">
<title>TakeOffSequence*&#45;&gt;VerifyOffboard_2</title>
<path fill="none" stroke="black" d="M1244.98,-71.7C1244.65,-63.98 1244.25,-54.71 1243.89,-46.11"/>
<polygon fill="black" stroke="black" points="1247.38,-45.95 1243.46,-36.1 1240.39,-46.25 1247.38,-45.95"/>
</g>
<!-- TakeOffCmd_2 -->
<g id="node31" class="node">
<title>TakeOffCmd_2</title>
<ellipse fill="gray" stroke="black" cx="1363.72" cy="-18" rx="47.84" ry="18"/>
<text text-anchor="middle" x="1363.72" y="-15.8" font-family="Times,serif" font-size="9.00">TakeOffCmd_2</text>
</g>
<!-- TakeOffSequence*&#45;&gt;TakeOffCmd_2 -->
<g id="edge30" class="edge">
<title>TakeOffSequence*&#45;&gt;TakeOffCmd_2</title>
<path fill="none" stroke="black" d="M1274.59,-71.88C1291.44,-61.88 1312.77,-49.23 1330.34,-38.8"/>
<polygon fill="black" stroke="black" points="1332.33,-41.69 1339.14,-33.58 1328.76,-35.67 1332.33,-41.69"/>
</g>
<!-- GoTo* -->
<g id="node33" class="node">
<title>GoTo*</title>
<ellipse fill="gray" stroke="black" cx="1341.72" cy="-90" rx="27" ry="18"/>
<text text-anchor="middle" x="1341.72" y="-87.8" font-family="Times,serif" font-size="9.00">GoTo*</text>
</g>
<!-- ApproachTarget_2&#45;&gt;GoTo* -->
<g id="edge32" class="edge">
<title>ApproachTarget_2&#45;&gt;GoTo*</title>
<path fill="none" stroke="black" d="M1384.63,-143.7C1377.39,-134.8 1368.47,-123.84 1360.63,-114.22"/>
<polygon fill="black" stroke="black" points="1363.13,-111.75 1354.1,-106.2 1357.7,-116.17 1363.13,-111.75"/>
</g>
<!-- FindAttachmentPoint* -->
<g id="node34" class="node">
<title>FindAttachmentPoint*</title>
<ellipse fill="gray" stroke="black" cx="1455.72" cy="-90" rx="68.91" ry="18"/>
<text text-anchor="middle" x="1455.72" y="-87.8" font-family="Times,serif" font-size="9.00">FindAttachmentPoint*</text>
</g>
<!-- ApproachTarget_2&#45;&gt;FindAttachmentPoint* -->
<g id="edge33" class="edge">
<title>ApproachTarget_2&#45;&gt;FindAttachmentPoint*</title>
<path fill="none" stroke="black" d="M1412.81,-143.7C1419.65,-135.3 1427.98,-125.07 1435.48,-115.86"/>
<polygon fill="black" stroke="black" points="1438.2,-118.07 1441.8,-108.1 1432.77,-113.65 1438.2,-118.07"/>
</g>
<!-- GoTo** -->
<g id="node36" class="node">
<title>GoTo**</title>
<ellipse fill="gray" stroke="black" cx="1570.72" cy="-90" rx="28.08" ry="18"/>
<text text-anchor="middle" x="1570.72" y="-87.8" font-family="Times,serif" font-size="9.00">GoTo**</text>
</g>
<!-- AttachSensor_2&#45;&gt;GoTo** -->
<g id="edge35" class="edge">
<title>AttachSensor_2&#45;&gt;GoTo**</title>
<path fill="none" stroke="black" d="M1653.81,-143.88C1637.18,-133.29 1615.85,-119.72 1598.97,-108.98"/>
<polygon fill="black" stroke="black" points="1600.43,-105.75 1590.11,-103.34 1596.67,-111.66 1600.43,-105.75"/>
</g>
<!-- Expose Manipulator -->
<g id="node37" class="node">
<title>Expose Manipulator</title>
<ellipse fill="gray" stroke="black" cx="1680.72" cy="-90" rx="63.52" ry="18"/>
<text text-anchor="middle" x="1680.72" y="-87.8" font-family="Times,serif" font-size="9.00">Expose Manipulator</text>
</g>
<!-- AttachSensor_2&#45;&gt;Expose Manipulator -->
<g id="edge36" class="edge">
<title>AttachSensor_2&#45;&gt;Expose Manipulator</title>
<path fill="none" stroke="black" d="M1680.72,-143.7C1680.72,-135.98 1680.72,-126.71 1680.72,-118.11"/>
<polygon fill="black" stroke="black" points="1684.22,-118.1 1680.72,-108.1 1677.22,-118.1 1684.22,-118.1"/>
</g>
<!-- Align Manipulator -->
<g id="node38" class="node">
<title>Align Manipulator</title>
<ellipse fill="gray" stroke="black" cx="1820.72" cy="-90" rx="58.13" ry="18"/>
<text text-anchor="middle" x="1820.72" y="-87.8" font-family="Times,serif" font-size="9.00">Align Manipulator</text>
</g>
<!-- AttachSensor_2&#45;&gt;Align Manipulator -->
<g id="edge37" class="edge">
<title>AttachSensor_2&#45;&gt;Align Manipulator</title>
<path fill="none" stroke="black" d="M1714.97,-143.88C1735.28,-133.72 1761.08,-120.82 1782.11,-110.31"/>
<polygon fill="black" stroke="black" points="1783.72,-113.42 1791.1,-105.81 1780.59,-107.15 1783.72,-113.42"/>
</g>
<!-- Apply Constant Pressure -->
<g id="node39" class="node">
<title>Apply Constant Pressure</title>
<ellipse fill="gray" stroke="black" cx="1972.72" cy="-90" rx="75.77" ry="18"/>
<text text-anchor="middle" x="1972.72" y="-87.8" font-family="Times,serif" font-size="9.00">Apply Constant Pressure</text>
</g>
<!-- AttachSensor_2&#45;&gt;Apply Constant Pressure -->
<g id="edge38" class="edge">
<title>AttachSensor_2&#45;&gt;Apply Constant Pressure</title>
<path fill="none" stroke="black" d="M1731.41,-146.44C1734.56,-145.6 1737.68,-144.78 1740.72,-144 1797.03,-129.6 1861.51,-115.02 1908.18,-104.81"/>
<polygon fill="black" stroke="black" points="1909.13,-108.18 1918.16,-102.63 1907.64,-101.35 1909.13,-108.18"/>
</g>
<!-- Attach Sensor -->
<g id="node40" class="node">
<title>Attach Sensor</title>
<ellipse fill="gray" stroke="black" cx="2112.72" cy="-90" rx="46.53" ry="18"/>
<text text-anchor="middle" x="2112.72" y="-87.8" font-family="Times,serif" font-size="9.00">Attach Sensor</text>
</g>
<!-- AttachSensor_2&#45;&gt;Attach Sensor -->
<g id="edge39" class="edge">
<title>AttachSensor_2&#45;&gt;Attach Sensor</title>
<path fill="none" stroke="black" d="M1731.32,-146.04C1734.49,-145.29 1737.64,-144.61 1740.72,-144 1879.84,-116.58 1918.94,-137.06 2057.72,-108 2061.41,-107.23 2065.21,-106.31 2069,-105.32"/>
<polygon fill="black" stroke="black" points="2070.27,-108.6 2078.95,-102.52 2068.38,-101.86 2070.27,-108.6"/>
</g>
<!-- Land* -->
<g id="node42" class="node">
<title>Land*</title>
<ellipse fill="gray" stroke="black" cx="1776.72" cy="-162" rx="27" ry="18"/>
<text text-anchor="middle" x="1776.72" y="-159.8" font-family="Times,serif" font-size="9.00">Land*</text>
</g>
<!-- Recovery_2&#45;&gt;Land* -->
<g id="edge41" class="edge">
<title>Recovery_2&#45;&gt;Land*</title>
<path fill="none" stroke="black" d="M1776.72,-215.7C1776.72,-207.98 1776.72,-198.71 1776.72,-190.11"/>
<polygon fill="black" stroke="black" points="1780.22,-190.1 1776.72,-180.1 1773.22,-190.1 1780.22,-190.1"/>
</g>
<!-- Disarm* -->
<g id="node43" class="node">
<title>Disarm*</title>
<ellipse fill="gray" stroke="black" cx="1852.72" cy="-162" rx="31.35" ry="18"/>
<text text-anchor="middle" x="1852.72" y="-159.8" font-family="Times,serif" font-size="9.00">Disarm*</text>
</g>
<!-- Recovery_2&#45;&gt;Disarm* -->
<g id="edge42" class="edge">
<title>Recovery_2&#45;&gt;Disarm*</title>
<path fill="none" stroke="black" d="M1795.51,-215.7C1805.7,-206.31 1818.38,-194.63 1829.22,-184.65"/>
<polygon fill="black" stroke="black" points="1831.74,-187.09 1836.72,-177.74 1827,-181.94 1831.74,-187.09"/>
</g>
</g>
</svg>
